<?xml version="1.0" encoding="UTF-8" standalone="no"?>
<!-- Generator: Adobe Illustrator 23.0.3, SVG Export Plug-In . SVG Version: 6.00 Build 0)  -->

<svg
   version="1.1"
   id="Layer_1"
   x="0px"
   y="0px"
   viewBox="0 0 72 72"
   style="enable-background:new 0 0 72 72;"
   xml:space="preserve"
   sodipodi:docname="GateSquare.svg"
   inkscape:version="1.4 (86a8ad7, 2024-10-11)"
   xmlns:inkscape="http://www.inkscape.org/namespaces/inkscape"
   xmlns:sodipodi="http://sodipodi.sourceforge.net/DTD/sodipodi-0.dtd"
   xmlns="http://www.w3.org/2000/svg"
   xmlns:svg="http://www.w3.org/2000/svg"><defs
   id="defs23" /><sodipodi:namedview
   id="namedview23"
   pagecolor="#ffffff"
   bordercolor="#999999"
   borderopacity="1"
   inkscape:showpageshadow="2"
   inkscape:pageopacity="0"
   inkscape:pagecheckerboard="true"
   inkscape:deskcolor="#d1d1d1"
   inkscape:zoom="24.069444"
   inkscape:cx="35.979227"
   inkscape:cy="36"
   inkscape:window-width="3840"
   inkscape:window-height="2036"
   inkscape:window-x="-12"
   inkscape:window-y="-12"
   inkscape:window-maximized="1"
   inkscape:current-layer="Layer_1" />
<style
   type="text/css"
   id="style1">
	.st0{fill:#FFFFFF;}
	.st1{fill:#FFFFFF;stroke:#000000;stroke-miterlimit:10;}
	.st2{fill:#0000FF;}
</style>
<g
   id="g23">
	<rect
   class="st0"
   width="72"
   height="72"
   id="rect1"
   style="fill:none" />
	<g
   id="g22">
		<rect
   x="2"
   y="2"
   class="st1"
   width="68"
   height="68"
   id="rect2" />
		<rect
   x="37.8"
   y="2"
   class="st1"
   width="32.2"
   height="32.2"
   id="rect3" />
		<rect
   x="55.6"
   y="2"
   class="st1"
   width="14.4"
   height="14.4"
   id="rect4" />
		<circle
   class="st2"
   cx="62.8"
   cy="9.2"
   r="3.6"
   id="circle4" />
		<rect
   x="55.6"
   y="19.9"
   class="st1"
   width="14.4"
   height="14.4"
   id="rect5" />
		<rect
   x="37.7"
   y="2"
   class="st1"
   width="14.4"
   height="14.4"
   id="rect6" />
		<circle
   class="st2"
   cx="45"
   cy="9.2"
   r="3.6"
   id="circle6" />
		<rect
   x="37.7"
   y="19.9"
   class="st1"
   width="14.4"
   height="14.4"
   id="rect7" />
		<circle
   class="st2"
   cx="45"
   cy="27"
   r="3.6"
   id="circle7" />
		<rect
   x="37.8"
   y="37.8"
   class="st1"
   width="32.2"
   height="32.2"
   id="rect8" />
		<rect
   x="55.6"
   y="37.7"
   class="st1"
   width="14.4"
   height="14.4"
   id="rect9" />
		<rect
   x="55.6"
   y="55.6"
   class="st1"
   width="14.4"
   height="14.4"
   id="rect10" />
		<circle
   class="st2"
   cx="62.8"
   cy="62.8"
   r="3.6"
   id="circle10" />
		<rect
   x="37.7"
   y="37.7"
   class="st1"
   width="14.4"
   height="14.4"
   id="rect11" />
		<circle
   class="st2"
   cx="45"
   cy="45"
   r="3.6"
   id="circle11" />
		<rect
   x="37.7"
   y="55.6"
   class="st1"
   width="14.4"
   height="14.4"
   id="rect12" />
		<circle
   class="st2"
   cx="45"
   cy="62.8"
   r="3.6"
   id="circle12" />
		<rect
   x="2"
   y="2"
   class="st1"
   width="32.2"
   height="32.2"
   id="rect13" />
		<rect
   x="19.9"
   y="2"
   class="st1"
   width="14.4"
   height="14.4"
   id="rect14" />
		<circle
   class="st2"
   cx="27"
   cy="9.2"
   r="3.6"
   id="circle14" />
		<rect
   x="19.9"
   y="19.9"
   class="st1"
   width="14.4"
   height="14.4"
   id="rect15" />
		<circle
   class="st2"
   cx="27"
   cy="27"
   r="3.6"
   id="circle15" />
		<rect
   x="2"
   y="2"
   class="st1"
   width="14.4"
   height="14.4"
   id="rect16" />
		<circle
   class="st2"
   cx="9.2"
   cy="9.2"
   r="3.6"
   id="circle16" />
		<rect
   x="2"
   y="19.9"
   class="st1"
   width="14.4"
   height="14.4"
   id="rect17" />
		<rect
   x="2"
   y="37.8"
   class="st1"
   width="32.2"
   height="32.2"
   id="rect18" />
		<rect
   x="19.9"
   y="37.7"
   class="st1"
   width="14.4"
   height="14.4"
   id="rect19" />
		<circle
   class="st2"
   cx="27"
   cy="45"
   r="3.6"
   id="circle19" />
		<rect
   x="19.9"
   y="55.6"
   class="st1"
   width="14.4"
   height="14.4"
   id="rect20" />
		<circle
   class="st2"
   cx="27"
   cy="62.8"
   r="3.6"
   id="circle20" />
		<rect
   x="2"
   y="37.7"
   class="st1"
   width="14.4"
   height="14.4"
   id="rect21" />
		<rect
   x="2"
   y="55.6"
   class="st1"
   width="14.4"
   height="14.4"
   id="rect22" />
		<circle
   class="st2"
   cx="9.2"
   cy="62.8"
   r="3.6"
   id="circle22" />
	</g>
</g>
</svg>
