<?xml version="1.0" encoding="UTF-8" standalone="no"?>
<!-- Generator: Adobe Illustrator 23.0.3, SVG Export Plug-In . SVG Version: 6.00 Build 0)  -->

<svg
   version="1.1"
   id="Layer_1"
   x="0px"
   y="0px"
   viewBox="0 0 72 72"
   style="enable-background:new 0 0 72 72;"
   xml:space="preserve"
   sodipodi:docname="TempleSquare.svg"
   inkscape:version="1.4 (86a8ad7, 2024-10-11)"
   xmlns:inkscape="http://www.inkscape.org/namespaces/inkscape"
   xmlns:sodipodi="http://sodipodi.sourceforge.net/DTD/sodipodi-0.dtd"
   xmlns="http://www.w3.org/2000/svg"
   xmlns:svg="http://www.w3.org/2000/svg"><defs
   id="defs28" /><sodipodi:namedview
   id="namedview28"
   pagecolor="#ffffff"
   bordercolor="#999999"
   borderopacity="1"
   inkscape:showpageshadow="2"
   inkscape:pageopacity="0"
   inkscape:pagecheckerboard="true"
   inkscape:deskcolor="#d1d1d1"
   inkscape:zoom="24.069444"
   inkscape:cx="35.979227"
   inkscape:cy="36"
   inkscape:window-width="3840"
   inkscape:window-height="2036"
   inkscape:window-x="-12"
   inkscape:window-y="-12"
   inkscape:window-maximized="1"
   inkscape:current-layer="Layer_1" />
<style
   type="text/css"
   id="style1">
	.st0{fill:#FFFFFF;}
	.st1{fill:#FFFFFF;stroke:#000000;stroke-linejoin:round;stroke-miterlimit:10;}
	.st2{fill:none;stroke:#000000;stroke-linejoin:round;stroke-miterlimit:10;}
	.st3{fill:#0000FF;}
	.st4{fill:none;stroke:#000000;stroke-miterlimit:10;}
</style>
<g
   id="Four_Eyes_4_">
	<rect
   class="st0"
   width="72"
   height="72"
   id="rect1"
   style="fill:none" />
	<g
   id="g10">
		<g
   id="g5">
			<rect
   x="17.8"
   y="32.7"
   class="st1"
   width="6.5"
   height="9.6"
   id="rect2" />
			<rect
   x="27.5"
   y="32.8"
   class="st1"
   width="6.5"
   height="9.6"
   id="rect3" />
			<rect
   x="17.8"
   y="13.5"
   class="st1"
   width="6.5"
   height="14.4"
   id="rect4" />
			<rect
   x="27.5"
   y="13.6"
   class="st1"
   width="6.5"
   height="14.4"
   id="rect5" />
		</g>
		<g
   id="g9">
			<rect
   x="1.6"
   y="32.8"
   class="st1"
   width="6.5"
   height="9.6"
   id="rect6" />
			<rect
   x="11.3"
   y="32.8"
   class="st1"
   width="6.5"
   height="9.6"
   id="rect7" />
			<rect
   x="1.6"
   y="13.6"
   class="st1"
   width="6.5"
   height="14.4"
   id="rect8" />
			<rect
   x="11.3"
   y="13.6"
   class="st1"
   width="6.5"
   height="14.4"
   id="rect9" />
		</g>
		<line
   class="st2"
   x1="17.7"
   y1="16.9"
   x2="17.7"
   y2="42.4"
   id="line9" />
	</g>
	<path
   class="st1"
   d="M34,9.7l-6.8-5.5c-2.9-2.3-6.1-3.5-9.5-3.5s-6.6,1.2-9.5,3.5L1.4,9.7v6l5.4,4.4c3.2,2.6,7,4.1,10.8,4.1   s7.5-1.4,10.8-4.1l5.4-4.4v-6H34z"
   id="path10" />
	<path
   class="st1"
   d="M1.6,12.7L9.7,6c5-4.1,11.2-4.1,16.2,0l8.1,6.7l-6.8,5.6c-5.7,4.7-13,4.7-18.8,0L1.6,12.7z"
   id="path11" />
	<ellipse
   class="st3"
   cx="17.7"
   cy="12.4"
   rx="4"
   ry="4.2"
   id="ellipse11" />
	<g
   id="g19">
		<g
   id="g14">
			<rect
   x="54.3"
   y="32.7"
   class="st1"
   width="6.5"
   height="9.6"
   id="rect11" />
			<rect
   x="64"
   y="32.7"
   class="st1"
   width="6.5"
   height="9.6"
   id="rect12" />
			<rect
   x="54.3"
   y="13.5"
   class="st1"
   width="6.5"
   height="14.4"
   id="rect13" />
			<rect
   x="64"
   y="13.5"
   class="st1"
   width="6.5"
   height="14.4"
   id="rect14" />
		</g>
		<g
   id="g18">
			<rect
   x="38.1"
   y="32.7"
   class="st1"
   width="6.5"
   height="9.6"
   id="rect15" />
			<rect
   x="47.8"
   y="32.8"
   class="st1"
   width="6.5"
   height="9.6"
   id="rect16" />
			<rect
   x="38.1"
   y="13.5"
   class="st1"
   width="6.5"
   height="14.4"
   id="rect17" />
			<rect
   x="47.8"
   y="13.6"
   class="st1"
   width="6.5"
   height="14.4"
   id="rect18" />
		</g>
		<line
   class="st2"
   x1="54.3"
   y1="16.9"
   x2="54.3"
   y2="42.4"
   id="line18" />
	</g>
	<path
   class="st1"
   d="M70.4,9.7l-6.8-5.5c-2.9-2.3-6.1-3.5-9.5-3.5s-6.6,1.2-9.5,3.5l-6.8,5.5v6l5.4,4.4c3.2,2.6,7,4.1,10.8,4.1   c3.8,0,7.5-1.4,10.8-4.1l5.4-4.4v-6H70.4z"
   id="path19" />
	<path
   class="st1"
   d="M38,12.7L46.1,6c5-4.1,11.2-4.1,16.2,0l8.1,6.7l-6.8,5.6c-5.7,4.7-13,4.7-18.8,0L38,12.7z"
   id="path20" />
	<ellipse
   class="st3"
   cx="54.3"
   cy="12.4"
   rx="4"
   ry="4.2"
   id="ellipse20" />
	<path
   class="st1"
   d="M34,56.3l-6.8-5.5c-2.9-2.3-6.1-3.5-9.5-3.5s-6.6,1.2-9.5,3.5l-6.8,5.5v6l5.4,4.4c3.2,2.6,7,4.1,10.8,4.1   s7.5-1.4,10.8-4.1l5.4-4.4v-6H34z"
   id="path21" />
	<path
   class="st1"
   d="M1.6,59.3l8.1-6.7c5-4.1,11.2-4.1,16.2,0l8.1,6.7l-6.8,5.6c-5.7,4.7-13,4.7-18.8,0L1.6,59.3z"
   id="path22" />
	<ellipse
   class="st3"
   cx="17.7"
   cy="59"
   rx="4"
   ry="4.2"
   id="ellipse22" />
	<path
   class="st1"
   d="M70.4,56.3l-6.8-5.5c-2.9-2.3-6.1-3.5-9.5-3.5s-6.6,1.2-9.5,3.5l-6.8,5.5v6l5.4,4.4c3.2,2.6,7,4.1,10.8,4.1   c3.8,0,7.5-1.4,10.8-4.1l5.4-4.4v-6H70.4z"
   id="path23" />
	<path
   class="st1"
   d="M38,59.3l8.1-6.7c5-4.1,11.2-4.1,16.2,0l8.1,6.7l-6.8,5.6c-5.7,4.7-13,4.7-18.8,0L38,59.3z"
   id="path24" />
	<ellipse
   class="st3"
   cx="54.3"
   cy="59"
   rx="4"
   ry="4.2"
   id="ellipse24" />
	<line
   class="st2"
   x1="38"
   y1="0"
   x2="38"
   y2="72"
   id="line24" />
	<line
   class="st2"
   x1="34"
   y1="72"
   x2="34"
   y2="0"
   id="line25" />
	<line
   class="st2"
   x1="1.6"
   y1="42.4"
   x2="70.4"
   y2="42.4"
   id="line26" />
	<line
   class="st4"
   x1="1.5"
   y1="72"
   x2="1.5"
   y2="0"
   id="line27" />
	<line
   class="st4"
   x1="70.5"
   y1="0"
   x2="70.5"
   y2="72"
   id="line28" />
</g>
</svg>
