<svg xmlns="http://www.w3.org/2000/svg" viewBox="0 0 61.2 53.9"><defs><style>.cls-1{fill:gray;}.cls-2{fill:none;stroke:gray;stroke-miterlimit:10;}.cls-3{fill:#fff;}</style></defs><title>DieB2</title><g id="Layer_2" data-name="Layer 2"><g id="Layer_1-2" data-name="Layer 1"><g id="DieB2"><path d="M3.25,53.4A2.65,2.65,0,0,1,1,52.1a2.62,2.62,0,0,1,0-2.7L28.35,1.9a2.68,2.68,0,0,1,4.6,0l27.4,47.5a2.62,2.62,0,0,1,0,2.7,2.65,2.65,0,0,1-2.3,1.3Z"/><path class="cls-1" d="M30.65,1a2.26,2.26,0,0,1,1.9,1.1L60,49.6a2.15,2.15,0,0,1-1.9,3.2H3.15a2.15,2.15,0,0,1-1.9-3.2L28.65,2.1a2.57,2.57,0,0,1,2-1.1m0-1A3,3,0,0,0,28,1.6L.45,49.1a3.07,3.07,0,0,0,0,3.2,3.15,3.15,0,0,0,2.7,1.6h54.9a3,3,0,0,0,2.7-1.6,3.07,3.07,0,0,0,0-3.2L33.35,1.6A3,3,0,0,0,30.65,0Z"/><line class="cls-2" x1="30.65" y1="34.9" x2="59.95" y2="51.8"/><line class="cls-2" x1="30.65" y1="34.9" x2="30.65" y2="1"/><line class="cls-2" x1="30.65" y1="34.9" x2="1.35" y2="51.8"/><path class="cls-3" d="M28.75,2.1l-4.3,7.4a.68.68,0,0,0,1,.9l4.7-3.3a.61.61,0,0,1,.8,0l4.7,3.3c.6.4,1.4-.3,1-.9l-4.3-7.4A2.07,2.07,0,0,0,28.75,2.1Z"/><path class="cls-3" d="M60,49.6l-4.3-7.4a.69.69,0,0,0-1.3.4l.5,5.7a.67.67,0,0,1-.4.7l-5.2,2.4a.73.73,0,0,0,.3,1.4h8.6A2.1,2.1,0,0,0,60,49.6Z"/></g></g></g></svg>