<svg xmlns="http://www.w3.org/2000/svg" viewBox="0 0 61.2 53.9"><defs><style>.cls-1{fill:gray;}.cls-2{fill:none;stroke:gray;stroke-miterlimit:10;}.cls-3{fill:#fff;}</style></defs><title>DieW2</title><g id="Layer_2" data-name="Layer 2"><g id="Layer_1-2" data-name="Layer 1"><g id="DieW2"><path d="M3.15,53.3A2.65,2.65,0,0,1,.85,52a2.62,2.62,0,0,1,0-2.7L28.25,1.8a2.68,2.68,0,0,1,4.6,0l27.4,47.5a2.62,2.62,0,0,1,0,2.7A2.65,2.65,0,0,1,58,53.3Z"/><path class="cls-1" d="M30.55,1a2.26,2.26,0,0,1,1.9,1.1l27.4,47.5A2.15,2.15,0,0,1,58,52.8H3.05a2.15,2.15,0,0,1-1.9-3.2L28.55,2.1a2.32,2.32,0,0,1,2-1.1m0-1a3,3,0,0,0-2.7,1.6L.45,49.1a3.07,3.07,0,0,0,0,3.2,3.15,3.15,0,0,0,2.7,1.6h54.9a3,3,0,0,0,2.7-1.6,3.07,3.07,0,0,0,0-3.2L33.35,1.6A3.31,3.31,0,0,0,30.55,0Z"/><line class="cls-2" x1="30.55" y1="34.8" x2="1.25" y2="51.7"/><line class="cls-2" x1="30.55" y1="34.8" x2="30.55" y2="1"/><line class="cls-2" x1="30.55" y1="34.8" x2="59.85" y2="51.7"/><path class="cls-3" d="M31.15,26.9l6.5,11.3a.73.73,0,0,1-.6,1.1h-13a.7.7,0,0,1-.6-1.1L30,26.9A.67.67,0,0,1,31.15,26.9Z"/><path class="cls-3" d="M32.45,2.1l4.3,7.4a.68.68,0,0,1-1,.9l-4.7-3.3a.61.61,0,0,0-.8,0l-4.7,3.3c-.6.4-1.4-.3-1-.9l4.3-7.4A2,2,0,0,1,32.45,2.1Z"/></g></g></g></svg>