<?xml version="1.0" encoding="utf-8"?>
<!-- Generator: Adobe Illustrator 23.0.3, SVG Export Plug-In . SVG Version: 6.00 Build 0)  -->
<svg version="1.1" id="Layer_1" xmlns="http://www.w3.org/2000/svg" xmlns:xlink="http://www.w3.org/1999/xlink" x="0px" y="0px"
	 viewBox="0 0 72 72" style="enable-background:new 0 0 72 72;" xml:space="preserve">
<style type="text/css">
	.st0{fill:#FFFFFF;}
	.st1{fill:#FFFFFF;stroke:#000000;stroke-miterlimit:10;}
	.st2{fill:#0000FF;}
</style>
<g>
	<rect class="st0" width="72" height="72"/>
	<g>
		<rect x="2" y="2" class="st1" width="68" height="68"/>
		<rect x="37.8" y="2" class="st1" width="32.2" height="32.2"/>
		<rect x="55.6" y="2" class="st1" width="14.4" height="14.4"/>
		<circle class="st2" cx="62.8" cy="9.2" r="3.6"/>
		<rect x="55.6" y="19.9" class="st1" width="14.4" height="14.4"/>
		<rect x="37.7" y="2" class="st1" width="14.4" height="14.4"/>
		<circle class="st2" cx="45" cy="9.2" r="3.6"/>
		<rect x="37.7" y="19.9" class="st1" width="14.4" height="14.4"/>
		<circle class="st2" cx="45" cy="27" r="3.6"/>
		<rect x="37.8" y="37.8" class="st1" width="32.2" height="32.2"/>
		<rect x="55.6" y="37.7" class="st1" width="14.4" height="14.4"/>
		<rect x="55.6" y="55.6" class="st1" width="14.4" height="14.4"/>
		<circle class="st2" cx="62.8" cy="62.8" r="3.6"/>
		<rect x="37.7" y="37.7" class="st1" width="14.4" height="14.4"/>
		<circle class="st2" cx="45" cy="45" r="3.6"/>
		<rect x="37.7" y="55.6" class="st1" width="14.4" height="14.4"/>
		<circle class="st2" cx="45" cy="62.8" r="3.6"/>
		<rect x="2" y="2" class="st1" width="32.2" height="32.2"/>
		<rect x="19.9" y="2" class="st1" width="14.4" height="14.4"/>
		<circle class="st2" cx="27" cy="9.2" r="3.6"/>
		<rect x="19.9" y="19.9" class="st1" width="14.4" height="14.4"/>
		<circle class="st2" cx="27" cy="27" r="3.6"/>
		<rect x="2" y="2" class="st1" width="14.4" height="14.4"/>
		<circle class="st2" cx="9.2" cy="9.2" r="3.6"/>
		<rect x="2" y="19.9" class="st1" width="14.4" height="14.4"/>
		<rect x="2" y="37.8" class="st1" width="32.2" height="32.2"/>
		<rect x="19.9" y="37.7" class="st1" width="14.4" height="14.4"/>
		<circle class="st2" cx="27" cy="45" r="3.6"/>
		<rect x="19.9" y="55.6" class="st1" width="14.4" height="14.4"/>
		<circle class="st2" cx="27" cy="62.8" r="3.6"/>
		<rect x="2" y="37.7" class="st1" width="14.4" height="14.4"/>
		<rect x="2" y="55.6" class="st1" width="14.4" height="14.4"/>
		<circle class="st2" cx="9.2" cy="62.8" r="3.6"/>
	</g>
</g>
</svg>
