<?xml version="1.0" encoding="utf-8"?>
<!-- Generator: Adobe Illustrator 23.0.3, SVG Export Plug-In . SVG Version: 6.00 Build 0)  -->
<svg version="1.1" id="Layer_1" xmlns="http://www.w3.org/2000/svg" xmlns:xlink="http://www.w3.org/1999/xlink" x="0px" y="0px"
	 viewBox="0 0 657 252" style="enable-background:new 0 0 657 252;" xml:space="preserve">
<style type="text/css">
	.st0{fill:#6FBE44;stroke:#000000;stroke-miterlimit:10;}
	.st1{opacity:0;fill:none;stroke:#FFFFFF;stroke-miterlimit:10;}
</style>
<title>Board</title>
<path class="st0" d="M589.5,40.5h-36c-14.9,0-27,12.1-27,27v18c0,9.9-8.1,18-18,18h-423c-9.9,0-18-8.1-18-18s8.1-18,18-18H315V81
	l18-18l-18-18v13.5H85.5c-14.9,0-27,12.1-27,27s12.1,27,27,27h423c14.9,0,27-12.1,27-27v-18c0-9.9,8.1-18,18-18h36
	c9.9,0,18,8.1,18,18v117c0,9.9-8.1,18-18,18h-36c-9.9,0-18-8.1-18-18v-18c0-14.9-12.1-27-27-27h-468c-9.9,0-18-8.1-18-18v-81
	c0-9.9,8.1-18,18-18H333v-9H40.5c-14.9,0-27,12.1-27,27v81c0,14.9,12.1,27,27,27h468c9.9,0,18,8.1,18,18v18c0,14.9,12.1,27,27,27h36
	c14.9,0,27-12.1,27-27v-117C616.5,52.6,604.4,40.5,589.5,40.5z"/>
<rect class="st1" width="657" height="252"/>
</svg>
