<?xml version="1.0" encoding="UTF-8" standalone="no"?>
<!-- Created with Inkscape (http://www.inkscape.org/) -->

<svg
   width="38.682034mm"
   height="19.314583mm"
   viewBox="0 0 38.682034 19.314583"
   version="1.1"
   id="svg1"
   inkscape:version="1.4 (86a8ad7, 2024-10-11)"
   sodipodi:docname="HouseBonus.svg"
   xmlns:inkscape="http://www.inkscape.org/namespaces/inkscape"
   xmlns:sodipodi="http://sodipodi.sourceforge.net/DTD/sodipodi-0.dtd"
   xmlns="http://www.w3.org/2000/svg"
   xmlns:svg="http://www.w3.org/2000/svg">
  <sodipodi:namedview
     id="namedview1"
     pagecolor="#ffffff"
     bordercolor="#999999"
     borderopacity="1"
     inkscape:showpageshadow="2"
     inkscape:pageopacity="0"
     inkscape:pagecheckerboard="0"
     inkscape:deskcolor="#d1d1d1"
     inkscape:document-units="mm"
     inkscape:zoom="4.3666621"
     inkscape:cx="85.648944"
     inkscape:cy="30.458047"
     inkscape:window-width="1974"
     inkscape:window-height="1531"
     inkscape:window-x="1572"
     inkscape:window-y="320"
     inkscape:window-maximized="0"
     inkscape:current-layer="layer1"
     showgrid="true">
    <inkscape:grid
       id="grid1"
       units="mm"
       originx="-85.063541"
       originy="-138.77396"
       spacingx="0.26458333"
       spacingy="0.26458334"
       empcolor="#0099e5"
       empopacity="0.30196078"
       color="#0099e5"
       opacity="0.14901961"
       empspacing="5"
       enabled="true"
       visible="true" />
  </sodipodi:namedview>
  <defs
     id="defs1" />
  <g
     inkscape:label="Layer 1"
     inkscape:groupmode="layer"
     id="layer1"
     transform="translate(-85.063541,-138.77396)">
    <g
       id="g17"
       inkscape:label="House Square"
       transform="matrix(0.26458333,0,0,0.26458333,85.195833,138.90625)">
	<rect
   class="st0"
   width="72"
   height="72"
   id="rect1"
   style="fill:#ffffff;stroke:#0000ff"
   x="0"
   y="0" />

	<g
   id="g16">
		<g
   id="g3">
			<circle
   cx="36"
   cy="36"
   r="9"
   id="circle1" />

			<circle
   class="st0"
   cx="36"
   cy="36"
   r="7.5"
   id="circle2"
   style="fill:#ffffff" />

			<circle
   class="st1"
   cx="36"
   cy="36"
   r="3"
   id="circle3"
   style="fill:#0000ff" />

		</g>

		<g
   id="g6">
			<circle
   cx="54"
   cy="18"
   r="9"
   id="circle4" />

			<circle
   class="st0"
   cx="54"
   cy="18"
   r="7.5"
   id="circle5"
   style="fill:#ffffff" />

			<circle
   class="st1"
   cx="54"
   cy="18"
   r="3"
   id="circle6"
   style="fill:#0000ff" />

		</g>

		<g
   id="g9">
			<circle
   cx="18"
   cy="18"
   r="9"
   id="circle7" />

			<circle
   class="st0"
   cx="18"
   cy="18"
   r="7.5"
   id="circle8"
   style="fill:#ffffff" />

			<circle
   class="st1"
   cx="18"
   cy="18"
   r="3"
   id="circle9"
   style="fill:#0000ff" />

		</g>

		<g
   id="g12">
			<circle
   cx="18"
   cy="54"
   r="9"
   id="circle10" />

			<circle
   class="st0"
   cx="18"
   cy="54"
   r="7.5"
   id="circle11"
   style="fill:#ffffff" />

			<circle
   class="st1"
   cx="18"
   cy="54"
   r="3"
   id="circle12"
   style="fill:#0000ff" />

		</g>

		<g
   id="g15">
			<circle
   cx="54"
   cy="54"
   r="9"
   id="circle13" />

			<circle
   class="st0"
   cx="54"
   cy="54"
   r="7.5"
   id="circle14"
   style="fill:#ffffff" />

			<circle
   class="st1"
   cx="54"
   cy="54"
   r="3"
   id="circle15"
   style="fill:#0000ff" />

		</g>

	</g>

</g>
    <g
       id="Layer_2"
       data-name="Layer 2"
       transform="matrix(0.26458333,0,0,0.26458333,107.5531,141.15429)">
      <g
         id="Layer_1-2"
         data-name="Layer 1">
        <g
           id="DieW1">
          <path
             d="m 3.05,53.3 a 2.65,2.65 0 0 1 -2.3,-1.3 2.62,2.62 0 0 1 0,-2.7 L 28.15,1.8 a 2.68,2.68 0 0 1 4.6,0 l 27.4,47.5 a 2.62,2.62 0 0 1 0,2.7 2.65,2.65 0 0 1 -2.3,1.3 z"
             id="path1" />
          <path
             class="cls-1"
             d="m 30.55,1 a 2.26,2.26 0 0 1 1.9,1.1 l 27.4,47.5 A 2.15,2.15 0 0 1 58,52.8 H 3.05 A 2.15,2.15 0 0 1 1.15,49.6 L 28.55,2.1 a 2.21,2.21 0 0 1 2,-1.1 m 0,-1 a 3,3 0 0 0 -2.7,1.6 L 0.45,49.1 a 3.07,3.07 0 0 0 0,3.2 3.15,3.15 0 0 0 2.7,1.6 h 54.9 a 3,3 0 0 0 2.7,-1.6 3.07,3.07 0 0 0 0,-3.2 L 33.35,1.6 A 3.45,3.45 0 0 0 30.55,0 Z"
             id="path2"
             style="fill:#808080" />
          <line
             class="cls-2"
             x1="30.549999"
             y1="34.799999"
             x2="59.849998"
             y2="51.700001"
             id="line2"
             style="fill:none;stroke:#808080;stroke-miterlimit:10" />
          <line
             class="cls-2"
             x1="30.549999"
             y1="34.799999"
             x2="30.549999"
             y2="1"
             id="line3"
             style="fill:none;stroke:#808080;stroke-miterlimit:10" />
          <line
             class="cls-2"
             x1="30.549999"
             y1="34.799999"
             x2="1.15"
             y2="51.700001"
             id="line4"
             style="fill:none;stroke:#808080;stroke-miterlimit:10" />
          <path
             class="cls-3"
             d="m 29.85,26.9 -6.5,11.3 a 0.73,0.73 0 0 0 0.6,1.1 h 13.1 a 0.7,0.7 0 0 0 0.6,-1.1 l -6.5,-11.3 a 0.75,0.75 0 0 0 -1.3,0 z"
             id="path4"
             style="fill:#ffffff" />
          <path
             class="cls-3"
             d="m 59.85,49.6 -4.3,-7.4 a 0.69,0.69 0 0 0 -1.3,0.4 l 0.5,5.7 a 0.67,0.67 0 0 1 -0.4,0.7 l -5.2,2.4 a 0.73,0.73 0 0 0 0.3,1.4 h 8.6 a 2.17,2.17 0 0 0 1.8,-3.2 z"
             id="path5"
             style="fill:#ffffff" />
        </g>
      </g>
    </g>
    <path
       style="fill:#00ff00;stroke:#000000;stroke-width:0.264583px;stroke-linecap:butt;stroke-linejoin:miter;stroke-opacity:1"
       d="m 103.45208,146.84375 h 2.64583 v -2.64583 h 2.64584 v 2.64583 h 2.64583 v 2.64584 h -2.64583 v 2.64583 h -2.64584 v -2.64583 h -2.64583 z"
       id="path3" />
  </g>
</svg>
