<?xml version="1.0" encoding="utf-8"?>
<!-- Generator: Adobe Illustrator 23.0.3, SVG Export Plug-In . SVG Version: 6.00 Build 0)  -->
<svg version="1.1" id="Layer_1" xmlns="http://www.w3.org/2000/svg" xmlns:xlink="http://www.w3.org/1999/xlink" x="0px" y="0px"
	 viewBox="0 0 657 252" style="enable-background:new 0 0 657 252;" xml:space="preserve">
<style type="text/css">
	.st0{fill:#6FBE44;stroke:#000000;stroke-miterlimit:10;}
	.st1{opacity:0;fill:none;stroke:#FFFFFF;stroke-miterlimit:10;}
</style>
<title>Board</title>
<path class="st0" d="M571.5,40.5H504V27l-18,18l18,18V49.5h67.5c19.9,0,36,16.1,36,36v81c0,19.9-16.1,36-36,36s-36-16.1-36-36
	c0-24.8-20.2-45-45-45h-405c-19.9,0-36-16.1-36-36s16.1-36,36-36H333v-9H85.5c-24.8,0-45,20.2-45,45s20.2,45,45,45h405
	c19.9,0,36,16.1,36,36c0,24.8,20.2,45,45,45s45-20.2,45-45v-81C616.5,60.7,596.3,40.5,571.5,40.5z"/>
<rect class="st1" width="657" height="252"/>
</svg>
