<?xml version="1.0" encoding="UTF-8" standalone="no"?>
<!-- Generator: Adobe Illustrator 23.0.3, SVG Export Plug-In . SVG Version: 6.00 Build 0)  -->

<svg
   version="1.1"
   id="Layer_1"
   x="0px"
   y="0px"
   viewBox="0 0 72 72"
   style="enable-background:new 0 0 72 72;"
   xml:space="preserve"
   sodipodi:docname="MarketSquare.svg"
   inkscape:version="1.4 (86a8ad7, 2024-10-11)"
   xmlns:inkscape="http://www.inkscape.org/namespaces/inkscape"
   xmlns:sodipodi="http://sodipodi.sourceforge.net/DTD/sodipodi-0.dtd"
   xmlns="http://www.w3.org/2000/svg"
   xmlns:svg="http://www.w3.org/2000/svg"><defs
   id="defs19" /><sodipodi:namedview
   id="namedview19"
   pagecolor="#ffffff"
   bordercolor="#999999"
   borderopacity="1"
   inkscape:showpageshadow="2"
   inkscape:pageopacity="0"
   inkscape:pagecheckerboard="true"
   inkscape:deskcolor="#d1d1d1"
   inkscape:zoom="24.069444"
   inkscape:cx="35.979227"
   inkscape:cy="36"
   inkscape:window-width="3840"
   inkscape:window-height="2036"
   inkscape:window-x="-12"
   inkscape:window-y="-12"
   inkscape:window-maximized="1"
   inkscape:current-layer="Layer_1" />
<style
   type="text/css"
   id="style1">
	.st0{fill:#FFFFFF;}
	.st1{fill:#0000FF;}
	.st2{fill:none;stroke:#000000;stroke-miterlimit:10;}
</style>
<g
   id="g19">
	<rect
   class="st0"
   width="72"
   height="72"
   id="rect1"
   style="fill:none" />
	<g
   id="g18">
		<g
   id="g6">
			<polygon
   points="67.5,0 72,4.5 67.5,9 72,13.5 67.5,18 72,22.5 67.5,27 72,31.5 67.5,36 63,31.5 58.5,36 54,31.5 49.5,36      45,31.5 40.5,36 36,31.5 40.5,27 36,22.5 40.5,18 36,13.5 40.5,9 36,4.5 40.5,0 45,4.5 49.5,0 54,4.5 58.5,0 63,4.5    "
   id="polygon1" />
			<polygon
   class="st0"
   points="41.9,27 37.4,22.5 41.9,18 37.4,13.5 41.9,9 37.4,4.5 40.5,1.4 45,5.9 49.5,1.4 54,5.9 58.5,1.4      63,5.9 67.5,1.4 70.6,4.5 66.1,9 70.6,13.5 66.1,18 70.6,22.5 66.1,27 70.6,31.5 67.5,34.6 63,30.1 58.5,34.6 54,30.1 49.5,34.6      45,30.1 40.5,34.6 37.4,31.5    "
   id="polygon2" />
			<circle
   class="st1"
   cx="60.8"
   cy="11.3"
   r="3.4"
   id="circle2" />
			<circle
   class="st1"
   cx="60.8"
   cy="24.8"
   r="3.4"
   id="circle3" />
			<circle
   class="st1"
   cx="47.3"
   cy="11.3"
   r="3.4"
   id="circle4" />
			<circle
   class="st1"
   cx="47.3"
   cy="24.8"
   r="3.4"
   id="circle5" />
			<circle
   class="st1"
   cx="54"
   cy="18"
   r="3.4"
   id="circle6" />
		</g>
		<g
   id="g11">
			<polygon
   points="67.5,36 72,40.5 67.5,45 72,49.5 67.5,54 72,58.5 67.5,63 72,67.5 67.5,72 63,67.5 58.5,72 54,67.5 49.5,72      45,67.5 40.5,72 36,67.5 40.5,63 36,58.5 40.5,54 36,49.5 40.5,45 36,40.5 40.5,36 45,40.5 49.5,36 54,40.5 58.5,36 63,40.5         "
   id="polygon6" />
			<polygon
   class="st0"
   points="41.9,63 37.4,58.5 41.9,54 37.4,49.5 41.9,45 37.4,40.5 40.5,37.4 45,41.9 49.5,37.4 54,41.9      58.5,37.4 63,41.9 67.5,37.4 70.6,40.5 66.1,45 70.6,49.5 66.1,54 70.6,58.5 66.1,63 70.6,67.5 67.5,70.6 63,66.1 58.5,70.6      54,66.1 49.5,70.6 45,66.1 40.5,70.6 37.4,67.5    "
   id="polygon7" />
			<circle
   class="st1"
   cx="60.8"
   cy="47.3"
   r="3.4"
   id="circle7" />
			<circle
   class="st1"
   cx="60.8"
   cy="60.8"
   r="3.4"
   id="circle8" />
			<circle
   class="st1"
   cx="47.3"
   cy="47.3"
   r="3.4"
   id="circle9" />
			<circle
   class="st1"
   cx="47.3"
   cy="60.8"
   r="3.4"
   id="circle10" />
			<circle
   class="st1"
   cx="54"
   cy="54"
   r="3.4"
   id="circle11" />
		</g>
		<g
   id="g14">
			<polygon
   points="31.5,0 36,4.5 31.5,9 36,13.5 31.5,18 36,22.5 31.5,27 36,31.5 31.5,36 27,31.5 22.5,36 18,31.5 13.5,36 9,31.5      4.5,36 0,31.5 4.5,27 0,22.5 4.5,18 0,13.5 4.5,9 0,4.5 4.5,0 9,4.5 13.5,0 18,4.5 22.5,0 27,4.5    "
   id="polygon11" />
			<polygon
   class="st0"
   points="5.9,27 1.4,22.5 5.9,18 1.4,13.5 5.9,9 1.4,4.5 4.5,1.4 9,5.9 13.5,1.4 18,5.9 22.5,1.4 27,5.9      31.5,1.4 34.6,4.5 30.1,9 34.6,13.5 30.1,18 34.6,22.5 30.1,27 34.6,31.5 31.5,34.6 27,30.1 22.5,34.6 18,30.1 13.5,34.6 9,30.1      4.5,34.6 1.4,31.5    "
   id="polygon12" />
			<circle
   class="st1"
   cx="24.8"
   cy="11.3"
   r="3.4"
   id="circle12" />
			<circle
   class="st1"
   cx="24.8"
   cy="24.8"
   r="3.4"
   id="circle13" />
			<ellipse
   transform="matrix(0.4641 -0.8858 0.8858 0.4641 -3.9438 16.0727)"
   class="st1"
   cx="11.3"
   cy="11.3"
   rx="3.4"
   ry="3.4"
   id="ellipse13" />
			
				<ellipse
   transform="matrix(0.4641 -0.8858 0.8858 0.4641 -15.9021 23.3079)"
   class="st1"
   cx="11.3"
   cy="24.8"
   rx="3.4"
   ry="3.4"
   id="ellipse14" />
			<circle
   class="st1"
   cx="18"
   cy="18"
   r="3.4"
   id="circle14" />
		</g>
		<g
   id="g17">
			<polygon
   points="31.5,36 36,40.5 31.5,45 36,49.5 31.5,54 36,58.5 31.5,63 36,67.5 31.5,72 27,67.5 22.5,72 18,67.5 13.5,72      9,67.5 4.5,72 0,67.5 4.5,63 0,58.5 4.5,54 0,49.5 4.5,45 0,40.5 4.5,36 9,40.5 13.5,36 18,40.5 22.5,36 27,40.5    "
   id="polygon14" />
			<polygon
   class="st0"
   points="5.9,63 1.4,58.5 5.9,54 1.4,49.5 5.9,45 1.4,40.5 4.5,37.4 9,41.9 13.5,37.4 18,41.9 22.5,37.4      27,41.9 31.5,37.4 34.6,40.5 30.1,45 34.6,49.5 30.1,54 34.6,58.5 30.1,63 34.6,67.5 31.5,70.6 27,66.1 22.5,70.6 18,66.1      13.5,70.6 9,66.1 4.5,70.6 1.4,67.5    "
   id="polygon15" />
			<circle
   class="st1"
   cx="24.8"
   cy="47.3"
   r="3.4"
   id="circle15" />
			<circle
   class="st1"
   cx="24.8"
   cy="60.8"
   r="3.4"
   id="circle16" />
			<ellipse
   class="st1"
   cx="11.3"
   cy="47.3"
   rx="3.4"
   ry="3.4"
   id="ellipse16" />
			<ellipse
   class="st1"
   cx="11.3"
   cy="60.8"
   rx="3.4"
   ry="3.4"
   id="ellipse17" />
			<circle
   class="st1"
   cx="18"
   cy="54"
   r="3.4"
   id="circle17" />
		</g>
		<line
   class="st2"
   x1="72"
   y1="36"
   x2="0"
   y2="36"
   id="line17" />
		<line
   class="st2"
   x1="36"
   y1="72"
   x2="36"
   y2="0"
   id="line18" />
	</g>
</g>
</svg>
