<?xml version="1.0" encoding="UTF-8" standalone="no"?>
<!-- Generator: Adobe Illustrator 23.0.3, SVG Export Plug-In . SVG Version: 6.00 Build 0)  -->

<svg
   version="1.1"
   id="Layer_1"
   x="0px"
   y="0px"
   viewBox="0 0 72 72"
   style="enable-background:new 0 0 72 72;"
   xml:space="preserve"
   sodipodi:docname="TempleSquare.svg"
   inkscape:version="1.4 (86a8ad7, 2024-10-11)"
   xmlns:inkscape="http://www.inkscape.org/namespaces/inkscape"
   xmlns:sodipodi="http://sodipodi.sourceforge.net/DTD/sodipodi-0.dtd"
   xmlns="http://www.w3.org/2000/svg"
   xmlns:svg="http://www.w3.org/2000/svg"><defs
   id="defs28" /><sodipodi:namedview
   id="namedview28"
   pagecolor="#ffffff"
   bordercolor="#999999"
   borderopacity="1"
   inkscape:showpageshadow="2"
   inkscape:pageopacity="0"
   inkscape:pagecheckerboard="0"
   inkscape:deskcolor="#d1d1d1"
   inkscape:zoom="24.069444"
   inkscape:cx="35.979227"
   inkscape:cy="36"
   inkscape:window-width="3840"
   inkscape:window-height="2036"
   inkscape:window-x="-12"
   inkscape:window-y="-12"
   inkscape:window-maximized="1"
   inkscape:current-layer="Layer_1" />
<style
   type="text/css"
   id="style1">
	.st0{fill:#FFFFFF;}
	.st1{fill:#FFFFFF;stroke:#000000;stroke-linejoin:round;stroke-miterlimit:10;}
	.st2{fill:none;stroke:#000000;stroke-linejoin:round;stroke-miterlimit:10;}
	.st3{fill:#0000FF;}
	.st4{fill:none;stroke:#000000;stroke-miterlimit:10;}
</style>
<g
   id="Four_Eyes_4_"
   transform="rotate(90,36,36)">
	<rect
   class="st0"
   width="72"
   height="72"
   id="rect1"
   x="0"
   y="0" />
	<g
   id="g10">
		<g
   id="g5">
			<rect
   x="17.799999"
   y="32.700001"
   class="st1"
   width="6.5"
   height="9.6000004"
   id="rect2" />
			<rect
   x="27.5"
   y="32.799999"
   class="st1"
   width="6.5"
   height="9.6000004"
   id="rect3" />
			<rect
   x="17.799999"
   y="13.5"
   class="st1"
   width="6.5"
   height="14.4"
   id="rect4" />
			<rect
   x="27.5"
   y="13.6"
   class="st1"
   width="6.5"
   height="14.4"
   id="rect5" />
		</g>
		<g
   id="g9">
			<rect
   x="1.6"
   y="32.799999"
   class="st1"
   width="6.5"
   height="9.6000004"
   id="rect6" />
			<rect
   x="11.3"
   y="32.799999"
   class="st1"
   width="6.5"
   height="9.6000004"
   id="rect7" />
			<rect
   x="1.6"
   y="13.6"
   class="st1"
   width="6.5"
   height="14.4"
   id="rect8" />
			<rect
   x="11.3"
   y="13.6"
   class="st1"
   width="6.5"
   height="14.4"
   id="rect9" />
		</g>
		<line
   class="st2"
   x1="17.700001"
   y1="16.9"
   x2="17.700001"
   y2="42.400002"
   id="line9" />
	</g>
	<path
   class="st1"
   d="M 34,9.7 27.2,4.2 C 24.3,1.9 21.1,0.7 17.7,0.7 14.3,0.7 11.1,1.9 8.2,4.2 L 1.4,9.7 v 6 l 5.4,4.4 c 3.2,2.6 7,4.1 10.8,4.1 3.8,0 7.5,-1.4 10.8,-4.1 l 5.4,-4.4 v -6 H 34 Z"
   id="path10" />
	<path
   class="st1"
   d="M 1.6,12.7 9.7,6 c 5,-4.1 11.2,-4.1 16.2,0 l 8.1,6.7 -6.8,5.6 c -5.7,4.7 -13,4.7 -18.8,0 z"
   id="path11" />
	<ellipse
   class="st3"
   cx="17.700001"
   cy="12.4"
   rx="4"
   ry="4.1999998"
   id="ellipse11" />
	<g
   id="g19">
		<g
   id="g14">
			<rect
   x="54.299999"
   y="32.700001"
   class="st1"
   width="6.5"
   height="9.6000004"
   id="rect11" />
			<rect
   x="64"
   y="32.700001"
   class="st1"
   width="6.5"
   height="9.6000004"
   id="rect12" />
			<rect
   x="54.299999"
   y="13.5"
   class="st1"
   width="6.5"
   height="14.4"
   id="rect13" />
			<rect
   x="64"
   y="13.5"
   class="st1"
   width="6.5"
   height="14.4"
   id="rect14" />
		</g>
		<g
   id="g18">
			<rect
   x="38.099998"
   y="32.700001"
   class="st1"
   width="6.5"
   height="9.6000004"
   id="rect15" />
			<rect
   x="47.799999"
   y="32.799999"
   class="st1"
   width="6.5"
   height="9.6000004"
   id="rect16" />
			<rect
   x="38.099998"
   y="13.5"
   class="st1"
   width="6.5"
   height="14.4"
   id="rect17" />
			<rect
   x="47.799999"
   y="13.6"
   class="st1"
   width="6.5"
   height="14.4"
   id="rect18" />
		</g>
		<line
   class="st2"
   x1="54.299999"
   y1="16.9"
   x2="54.299999"
   y2="42.400002"
   id="line18" />
	</g>
	<path
   class="st1"
   d="M 70.4,9.7 63.6,4.2 C 60.7,1.9 57.5,0.7 54.1,0.7 c -3.4,0 -6.6,1.2 -9.5,3.5 l -6.8,5.5 v 6 l 5.4,4.4 c 3.2,2.6 7,4.1 10.8,4.1 3.8,0 7.5,-1.4 10.8,-4.1 l 5.4,-4.4 v -6 h 0.2 z"
   id="path19" />
	<path
   class="st1"
   d="M 38,12.7 46.1,6 c 5,-4.1 11.2,-4.1 16.2,0 l 8.1,6.7 -6.8,5.6 c -5.7,4.7 -13,4.7 -18.8,0 z"
   id="path20" />
	<ellipse
   class="st3"
   cx="54.299999"
   cy="12.4"
   rx="4"
   ry="4.1999998"
   id="ellipse20" />
	<path
   class="st1"
   d="m 34,56.3 -6.8,-5.5 c -2.9,-2.3 -6.1,-3.5 -9.5,-3.5 -3.4,0 -6.6,1.2 -9.5,3.5 l -6.8,5.5 v 6 l 5.4,4.4 c 3.2,2.6 7,4.1 10.8,4.1 3.8,0 7.5,-1.4 10.8,-4.1 l 5.4,-4.4 v -6 H 34 Z"
   id="path21" />
	<path
   class="st1"
   d="m 1.6,59.3 8.1,-6.7 c 5,-4.1 11.2,-4.1 16.2,0 l 8.1,6.7 -6.8,5.6 c -5.7,4.7 -13,4.7 -18.8,0 z"
   id="path22" />
	<ellipse
   class="st3"
   cx="17.700001"
   cy="59"
   rx="4"
   ry="4.1999998"
   id="ellipse22" />
	<path
   class="st1"
   d="m 70.4,56.3 -6.8,-5.5 c -2.9,-2.3 -6.1,-3.5 -9.5,-3.5 -3.4,0 -6.6,1.2 -9.5,3.5 l -6.8,5.5 v 6 l 5.4,4.4 c 3.2,2.6 7,4.1 10.8,4.1 3.8,0 7.5,-1.4 10.8,-4.1 l 5.4,-4.4 v -6 h 0.2 z"
   id="path23" />
	<path
   class="st1"
   d="m 38,59.3 8.1,-6.7 c 5,-4.1 11.2,-4.1 16.2,0 l 8.1,6.7 -6.8,5.6 c -5.7,4.7 -13,4.7 -18.8,0 z"
   id="path24" />
	<ellipse
   class="st3"
   cx="54.299999"
   cy="59"
   rx="4"
   ry="4.1999998"
   id="ellipse24" />
	<line
   class="st2"
   x1="38"
   y1="0"
   x2="38"
   y2="72"
   id="line24" />
	<line
   class="st2"
   x1="34"
   y1="72"
   x2="34"
   y2="0"
   id="line25" />
	<line
   class="st2"
   x1="1.6"
   y1="42.400002"
   x2="70.400002"
   y2="42.400002"
   id="line26" />
	<line
   class="st4"
   x1="1.5"
   y1="72"
   x2="1.5"
   y2="0"
   id="line27" />
	<line
   class="st4"
   x1="70.5"
   y1="0"
   x2="70.5"
   y2="72"
   id="line28" />
</g>
</svg>
