<?xml version="1.0" encoding="utf-8"?>
<!-- Generator: Adobe Illustrator 23.0.3, SVG Export Plug-In . SVG Version: 6.00 Build 0)  -->
<svg version="1.1" id="Layer_1" xmlns="http://www.w3.org/2000/svg" xmlns:xlink="http://www.w3.org/1999/xlink" x="0px" y="0px"
	 viewBox="0 0 72 72" style="enable-background:new 0 0 72 72;" xml:space="preserve">
<style type="text/css">
	.st0{fill:#FFFFFF;}
	.st1{fill:#FFFFFF;stroke:#000000;stroke-linejoin:round;stroke-miterlimit:10;}
	.st2{fill:none;stroke:#000000;stroke-linejoin:round;stroke-miterlimit:10;}
	.st3{fill:#0000FF;}
	.st4{fill:none;stroke:#000000;stroke-miterlimit:10;}
</style>
<g id="Four_Eyes_4_">
	<rect class="st0" width="72" height="72"/>
	<g>
		<g>
			<rect x="17.8" y="32.7" class="st1" width="6.5" height="9.6"/>
			<rect x="27.5" y="32.8" class="st1" width="6.5" height="9.6"/>
			<rect x="17.8" y="13.5" class="st1" width="6.5" height="14.4"/>
			<rect x="27.5" y="13.6" class="st1" width="6.5" height="14.4"/>
		</g>
		<g>
			<rect x="1.6" y="32.8" class="st1" width="6.5" height="9.6"/>
			<rect x="11.3" y="32.8" class="st1" width="6.5" height="9.6"/>
			<rect x="1.6" y="13.6" class="st1" width="6.5" height="14.4"/>
			<rect x="11.3" y="13.6" class="st1" width="6.5" height="14.4"/>
		</g>
		<line class="st2" x1="17.7" y1="16.9" x2="17.7" y2="42.4"/>
	</g>
	<path class="st1" d="M34,9.7l-6.8-5.5c-2.9-2.3-6.1-3.5-9.5-3.5s-6.6,1.2-9.5,3.5L1.4,9.7v6l5.4,4.4c3.2,2.6,7,4.1,10.8,4.1
		s7.5-1.4,10.8-4.1l5.4-4.4v-6H34z"/>
	<path class="st1" d="M1.6,12.7L9.7,6c5-4.1,11.2-4.1,16.2,0l8.1,6.7l-6.8,5.6c-5.7,4.7-13,4.7-18.8,0L1.6,12.7z"/>
	<ellipse class="st3" cx="17.7" cy="12.4" rx="4" ry="4.2"/>
	<g>
		<g>
			<rect x="54.3" y="32.7" class="st1" width="6.5" height="9.6"/>
			<rect x="64" y="32.7" class="st1" width="6.5" height="9.6"/>
			<rect x="54.3" y="13.5" class="st1" width="6.5" height="14.4"/>
			<rect x="64" y="13.5" class="st1" width="6.5" height="14.4"/>
		</g>
		<g>
			<rect x="38.1" y="32.7" class="st1" width="6.5" height="9.6"/>
			<rect x="47.8" y="32.8" class="st1" width="6.5" height="9.6"/>
			<rect x="38.1" y="13.5" class="st1" width="6.5" height="14.4"/>
			<rect x="47.8" y="13.6" class="st1" width="6.5" height="14.4"/>
		</g>
		<line class="st2" x1="54.3" y1="16.9" x2="54.3" y2="42.4"/>
	</g>
	<path class="st1" d="M70.4,9.7l-6.8-5.5c-2.9-2.3-6.1-3.5-9.5-3.5s-6.6,1.2-9.5,3.5l-6.8,5.5v6l5.4,4.4c3.2,2.6,7,4.1,10.8,4.1
		c3.8,0,7.5-1.4,10.8-4.1l5.4-4.4v-6H70.4z"/>
	<path class="st1" d="M38,12.7L46.1,6c5-4.1,11.2-4.1,16.2,0l8.1,6.7l-6.8,5.6c-5.7,4.7-13,4.7-18.8,0L38,12.7z"/>
	<ellipse class="st3" cx="54.3" cy="12.4" rx="4" ry="4.2"/>
	<path class="st1" d="M34,56.3l-6.8-5.5c-2.9-2.3-6.1-3.5-9.5-3.5s-6.6,1.2-9.5,3.5l-6.8,5.5v6l5.4,4.4c3.2,2.6,7,4.1,10.8,4.1
		s7.5-1.4,10.8-4.1l5.4-4.4v-6H34z"/>
	<path class="st1" d="M1.6,59.3l8.1-6.7c5-4.1,11.2-4.1,16.2,0l8.1,6.7l-6.8,5.6c-5.7,4.7-13,4.7-18.8,0L1.6,59.3z"/>
	<ellipse class="st3" cx="17.7" cy="59" rx="4" ry="4.2"/>
	<path class="st1" d="M70.4,56.3l-6.8-5.5c-2.9-2.3-6.1-3.5-9.5-3.5s-6.6,1.2-9.5,3.5l-6.8,5.5v6l5.4,4.4c3.2,2.6,7,4.1,10.8,4.1
		c3.8,0,7.5-1.4,10.8-4.1l5.4-4.4v-6H70.4z"/>
	<path class="st1" d="M38,59.3l8.1-6.7c5-4.1,11.2-4.1,16.2,0l8.1,6.7l-6.8,5.6c-5.7,4.7-13,4.7-18.8,0L38,59.3z"/>
	<ellipse class="st3" cx="54.3" cy="59" rx="4" ry="4.2"/>
	<line class="st2" x1="38" y1="0" x2="38" y2="72"/>
	<line class="st2" x1="34" y1="72" x2="34" y2="0"/>
	<line class="st2" x1="1.6" y1="42.4" x2="70.4" y2="42.4"/>
	<line class="st4" x1="1.5" y1="72" x2="1.5" y2="0"/>
	<line class="st4" x1="70.5" y1="0" x2="70.5" y2="72"/>
</g>
</svg>
