<?xml version="1.0" encoding="UTF-8" standalone="no"?>
<!-- Created with Inkscape (http://www.inkscape.org/) -->

<svg
   width="210mm"
   height="297mm"
   viewBox="0 0 210 297"
   version="1.1"
   id="svg1"
   inkscape:version="1.4 (86a8ad7, 2024-10-11)"
   sodipodi:docname="TempleBlessing.svg"
   xmlns:inkscape="http://www.inkscape.org/namespaces/inkscape"
   xmlns:sodipodi="http://sodipodi.sourceforge.net/DTD/sodipodi-0.dtd"
   xmlns="http://www.w3.org/2000/svg"
   xmlns:svg="http://www.w3.org/2000/svg">
  <sodipodi:namedview
     id="namedview1"
     pagecolor="#ffffff"
     bordercolor="#999999"
     borderopacity="1"
     inkscape:showpageshadow="2"
     inkscape:pageopacity="0"
     inkscape:pagecheckerboard="0"
     inkscape:deskcolor="#d1d1d1"
     inkscape:document-units="mm"
     showgrid="true"
     inkscape:zoom="4.3666621"
     inkscape:cx="497.17609"
     inkscape:cy="604.23727"
     inkscape:window-width="3840"
     inkscape:window-height="2036"
     inkscape:window-x="-12"
     inkscape:window-y="-12"
     inkscape:window-maximized="1"
     inkscape:current-layer="layer1">
    <inkscape:grid
       id="grid1"
       units="mm"
       originx="0"
       originy="0"
       spacingx="0.26458333"
       spacingy="0.26458334"
       empcolor="#0099e5"
       empopacity="0.30196078"
       color="#0099e5"
       opacity="0.14901961"
       empspacing="5"
       enabled="true"
       visible="true" />
  </sodipodi:namedview>
  <defs
     id="defs1" />
  <g
     inkscape:label="Layer 1"
     inkscape:groupmode="layer"
     id="layer1">
    <g
       id="Four_Eyes_4_"
       transform="matrix(0.26458333,0,0,0.26458333,98.68958,138.90625)">
	<rect
   class="st0"
   width="72"
   height="72"
   id="rect1"
   style="fill:#ffffff;stroke:#0000ff"
   x="0"
   y="0" />

	<g
   id="g10">
		<g
   id="g5">
			<rect
   x="17.799999"
   y="32.700001"
   class="st1"
   width="6.5"
   height="9.6000004"
   id="rect2"
   style="fill:#ffffff;stroke:#000000;stroke-linejoin:round;stroke-miterlimit:10" />

			<rect
   x="27.5"
   y="32.799999"
   class="st1"
   width="6.5"
   height="9.6000004"
   id="rect3"
   style="fill:#ffffff;stroke:#000000;stroke-linejoin:round;stroke-miterlimit:10" />

			<rect
   x="17.799999"
   y="13.5"
   class="st1"
   width="6.5"
   height="14.4"
   id="rect4"
   style="fill:#ffffff;stroke:#000000;stroke-linejoin:round;stroke-miterlimit:10" />

			<rect
   x="27.5"
   y="13.6"
   class="st1"
   width="6.5"
   height="14.4"
   id="rect5"
   style="fill:#ffffff;stroke:#000000;stroke-linejoin:round;stroke-miterlimit:10" />

		</g>

		<g
   id="g9">
			<rect
   x="1.6"
   y="32.799999"
   class="st1"
   width="6.5"
   height="9.6000004"
   id="rect6"
   style="fill:#ffffff;stroke:#000000;stroke-linejoin:round;stroke-miterlimit:10" />

			<rect
   x="11.3"
   y="32.799999"
   class="st1"
   width="6.5"
   height="9.6000004"
   id="rect7"
   style="fill:#ffffff;stroke:#000000;stroke-linejoin:round;stroke-miterlimit:10" />

			<rect
   x="1.6"
   y="13.6"
   class="st1"
   width="6.5"
   height="14.4"
   id="rect8"
   style="fill:#ffffff;stroke:#000000;stroke-linejoin:round;stroke-miterlimit:10" />

			<rect
   x="11.3"
   y="13.6"
   class="st1"
   width="6.5"
   height="14.4"
   id="rect9"
   style="fill:#ffffff;stroke:#000000;stroke-linejoin:round;stroke-miterlimit:10" />

		</g>

		<line
   class="st2"
   x1="17.700001"
   y1="16.9"
   x2="17.700001"
   y2="42.400002"
   id="line9"
   style="fill:none;stroke:#000000;stroke-linejoin:round;stroke-miterlimit:10" />

	</g>

	<path
   class="st1"
   d="M 34,9.7 27.2,4.2 C 24.3,1.9 21.1,0.7 17.7,0.7 14.3,0.7 11.1,1.9 8.2,4.2 L 1.4,9.7 v 6 l 5.4,4.4 c 3.2,2.6 7,4.1 10.8,4.1 3.8,0 7.5,-1.4 10.8,-4.1 l 5.4,-4.4 v -6 H 34 Z"
   id="path10"
   style="fill:#ffffff;stroke:#000000;stroke-linejoin:round;stroke-miterlimit:10" />

	<path
   class="st1"
   d="M 1.6,12.7 9.7,6 c 5,-4.1 11.2,-4.1 16.2,0 l 8.1,6.7 -6.8,5.6 c -5.7,4.7 -13,4.7 -18.8,0 z"
   id="path11"
   style="fill:#ffffff;stroke:#000000;stroke-linejoin:round;stroke-miterlimit:10" />

	<ellipse
   class="st3"
   cx="17.700001"
   cy="12.4"
   rx="4"
   ry="4.1999998"
   id="ellipse11"
   style="fill:#0000ff" />

	<g
   id="g19">
		<g
   id="g14">
			<rect
   x="54.299999"
   y="32.700001"
   class="st1"
   width="6.5"
   height="9.6000004"
   id="rect11"
   style="fill:#ffffff;stroke:#000000;stroke-linejoin:round;stroke-miterlimit:10" />

			<rect
   x="64"
   y="32.700001"
   class="st1"
   width="6.5"
   height="9.6000004"
   id="rect12"
   style="fill:#ffffff;stroke:#000000;stroke-linejoin:round;stroke-miterlimit:10" />

			<rect
   x="54.299999"
   y="13.5"
   class="st1"
   width="6.5"
   height="14.4"
   id="rect13"
   style="fill:#ffffff;stroke:#000000;stroke-linejoin:round;stroke-miterlimit:10" />

			<rect
   x="64"
   y="13.5"
   class="st1"
   width="6.5"
   height="14.4"
   id="rect14"
   style="fill:#ffffff;stroke:#000000;stroke-linejoin:round;stroke-miterlimit:10" />

		</g>

		<g
   id="g18">
			<rect
   x="38.099998"
   y="32.700001"
   class="st1"
   width="6.5"
   height="9.6000004"
   id="rect15"
   style="fill:#ffffff;stroke:#000000;stroke-linejoin:round;stroke-miterlimit:10" />

			<rect
   x="47.799999"
   y="32.799999"
   class="st1"
   width="6.5"
   height="9.6000004"
   id="rect16"
   style="fill:#ffffff;stroke:#000000;stroke-linejoin:round;stroke-miterlimit:10" />

			<rect
   x="38.099998"
   y="13.5"
   class="st1"
   width="6.5"
   height="14.4"
   id="rect17"
   style="fill:#ffffff;stroke:#000000;stroke-linejoin:round;stroke-miterlimit:10" />

			<rect
   x="47.799999"
   y="13.6"
   class="st1"
   width="6.5"
   height="14.4"
   id="rect18"
   style="fill:#ffffff;stroke:#000000;stroke-linejoin:round;stroke-miterlimit:10" />

		</g>

		<line
   class="st2"
   x1="54.299999"
   y1="16.9"
   x2="54.299999"
   y2="42.400002"
   id="line18"
   style="fill:none;stroke:#000000;stroke-linejoin:round;stroke-miterlimit:10" />

	</g>

	<path
   class="st1"
   d="M 70.4,9.7 63.6,4.2 C 60.7,1.9 57.5,0.7 54.1,0.7 c -3.4,0 -6.6,1.2 -9.5,3.5 l -6.8,5.5 v 6 l 5.4,4.4 c 3.2,2.6 7,4.1 10.8,4.1 3.8,0 7.5,-1.4 10.8,-4.1 l 5.4,-4.4 v -6 z"
   id="path19"
   style="fill:#ffffff;stroke:#000000;stroke-linejoin:round;stroke-miterlimit:10" />

	<path
   class="st1"
   d="M 38,12.7 46.1,6 c 5,-4.1 11.2,-4.1 16.2,0 l 8.1,6.7 -6.8,5.6 c -5.7,4.7 -13,4.7 -18.8,0 z"
   id="path20"
   style="fill:#ffffff;stroke:#000000;stroke-linejoin:round;stroke-miterlimit:10" />

	<ellipse
   class="st3"
   cx="54.299999"
   cy="12.4"
   rx="4"
   ry="4.1999998"
   id="ellipse20"
   style="fill:#0000ff" />

	<path
   class="st1"
   d="m 34,56.3 -6.8,-5.5 c -2.9,-2.3 -6.1,-3.5 -9.5,-3.5 -3.4,0 -6.6,1.2 -9.5,3.5 l -6.8,5.5 v 6 l 5.4,4.4 c 3.2,2.6 7,4.1 10.8,4.1 3.8,0 7.5,-1.4 10.8,-4.1 l 5.4,-4.4 v -6 z"
   id="path21"
   style="fill:#ffffff;stroke:#000000;stroke-linejoin:round;stroke-miterlimit:10" />

	<path
   class="st1"
   d="m 1.6,59.3 8.1,-6.7 c 5,-4.1 11.2,-4.1 16.2,0 l 8.1,6.7 -6.8,5.6 c -5.7,4.7 -13,4.7 -18.8,0 z"
   id="path22"
   style="fill:#ffffff;stroke:#000000;stroke-linejoin:round;stroke-miterlimit:10" />

	<ellipse
   class="st3"
   cx="17.700001"
   cy="59"
   rx="4"
   ry="4.1999998"
   id="ellipse22"
   style="fill:#0000ff" />

	<path
   class="st1"
   d="m 70.4,56.3 -6.8,-5.5 c -2.9,-2.3 -6.1,-3.5 -9.5,-3.5 -3.4,0 -6.6,1.2 -9.5,3.5 l -6.8,5.5 v 6 l 5.4,4.4 c 3.2,2.6 7,4.1 10.8,4.1 3.8,0 7.5,-1.4 10.8,-4.1 l 5.4,-4.4 v -6 z"
   id="path23"
   style="fill:#ffffff;stroke:#000000;stroke-linejoin:round;stroke-miterlimit:10" />

	<path
   class="st1"
   d="m 38,59.3 8.1,-6.7 c 5,-4.1 11.2,-4.1 16.2,0 l 8.1,6.7 -6.8,5.6 c -5.7,4.7 -13,4.7 -18.8,0 z"
   id="path24"
   style="fill:#ffffff;stroke:#000000;stroke-linejoin:round;stroke-miterlimit:10" />

	<ellipse
   class="st3"
   cx="54.299999"
   cy="59"
   rx="4"
   ry="4.1999998"
   id="ellipse24"
   style="fill:#0000ff" />

	<line
   class="st2"
   x1="38"
   y1="0"
   x2="38"
   y2="72"
   id="line24"
   style="fill:none;stroke:#000000;stroke-linejoin:round;stroke-miterlimit:10" />

	<line
   class="st2"
   x1="34"
   y1="72"
   x2="34"
   y2="0"
   id="line25"
   style="fill:none;stroke:#000000;stroke-linejoin:round;stroke-miterlimit:10" />

	<line
   class="st2"
   x1="1.6"
   y1="42.400002"
   x2="70.400002"
   y2="42.400002"
   id="line26"
   style="fill:none;stroke:#000000;stroke-linejoin:round;stroke-miterlimit:10" />

	<line
   class="st4"
   x1="1.5"
   y1="72"
   x2="1.5"
   y2="0"
   id="line27"
   style="fill:none;stroke:#000000;stroke-miterlimit:10" />

	<line
   class="st4"
   x1="70.5"
   y1="0"
   x2="70.5"
   y2="72"
   id="line28"
   style="fill:none;stroke:#000000;stroke-miterlimit:10" />

</g>
    <g
       id="Layer_2"
       data-name="Layer 2"
       transform="matrix(0.13193456,0,0,0.13193456,117.44373,137.65448)">
      <g
         id="Layer_1-2"
         data-name="Layer 1">
        <g
           id="DieB1">
          <path
             d="m 3.15,53.4 a 2.65,2.65 0 0 1 -2.3,-1.3 2.62,2.62 0 0 1 0,-2.7 L 28.25,1.9 a 2.68,2.68 0 0 1 4.6,0 l 27.4,47.5 a 2.62,2.62 0 0 1 0,2.7 2.65,2.65 0 0 1 -2.25,1.3 z"
             id="path1" />
          <path
             class="cls-1"
             d="m 30.65,1 a 2.26,2.26 0 0 1 1.9,1.1 L 60,49.6 a 2.15,2.15 0 0 1 -1.9,3.2 H 3.15 A 2.15,2.15 0 0 1 1.25,49.6 L 28.65,2.1 a 2.43,2.43 0 0 1 2,-1.1 m 0,-1 A 3,3 0 0 0 28,1.6 L 0.45,49.1 a 3.07,3.07 0 0 0 0,3.2 3.15,3.15 0 0 0 2.7,1.6 h 54.9 a 3,3 0 0 0 2.7,-1.6 3.07,3.07 0 0 0 0,-3.2 L 33.35,1.6 A 3.15,3.15 0 0 0 30.65,0 Z"
             id="path2"
             style="fill:#808080" />
          <line
             class="cls-2"
             x1="30.65"
             y1="34.900002"
             x2="1.25"
             y2="51.799999"
             id="line2"
             style="fill:none;stroke:#808080;stroke-miterlimit:10" />
          <line
             class="cls-2"
             x1="30.65"
             y1="34.900002"
             x2="30.65"
             y2="1"
             id="line3"
             style="fill:none;stroke:#808080;stroke-miterlimit:10" />
          <line
             class="cls-2"
             x1="30.65"
             y1="34.900002"
             x2="59.950001"
             y2="51.799999"
             id="line4"
             style="fill:none;stroke:#808080;stroke-miterlimit:10" />
          <path
             class="cls-3"
             d="m 1.25,49.6 4.3,-7.4 a 0.69,0.69 0 0 1 1.3,0.4 l -0.5,5.7 A 0.67,0.67 0 0 0 6.75,49 L 12,51.4 a 0.73,0.73 0 0 1 -0.3,1.4 H 3.05 a 2.13,2.13 0 0 1 -1.8,-3.2 z"
             id="path4"
             style="fill:#ffffff" />
          <path
             class="cls-3"
             d="m 60,49.6 -4.3,-7.4 a 0.69,0.69 0 0 0 -1.3,0.4 l 0.5,5.7 A 0.67,0.67 0 0 1 54.5,49 l -5.2,2.4 a 0.73,0.73 0 0 0 0.3,1.4 h 8.6 A 2.13,2.13 0 0 0 60,49.6 Z"
             id="path5"
             style="fill:#ffffff" />
        </g>
      </g>
    </g>
    <g
       id="Layer_2-9"
       data-name="Layer 2"
       transform="matrix(0.13193456,0,0,0.13193456,119.03123,142.02371)">
      <g
         id="Layer_1-2-8"
         data-name="Layer 1">
        <g
           id="DieB1-6">
          <path
             d="m 3.15,53.4 a 2.65,2.65 0 0 1 -2.3,-1.3 2.62,2.62 0 0 1 0,-2.7 L 28.25,1.9 a 2.68,2.68 0 0 1 4.6,0 l 27.4,47.5 a 2.62,2.62 0 0 1 0,2.7 2.65,2.65 0 0 1 -2.25,1.3 z"
             id="path1-5" />
          <path
             class="cls-1"
             d="m 30.65,1 a 2.26,2.26 0 0 1 1.9,1.1 L 60,49.6 a 2.15,2.15 0 0 1 -1.9,3.2 H 3.15 A 2.15,2.15 0 0 1 1.25,49.6 L 28.65,2.1 a 2.43,2.43 0 0 1 2,-1.1 m 0,-1 A 3,3 0 0 0 28,1.6 L 0.45,49.1 a 3.07,3.07 0 0 0 0,3.2 3.15,3.15 0 0 0 2.7,1.6 h 54.9 a 3,3 0 0 0 2.7,-1.6 3.07,3.07 0 0 0 0,-3.2 L 33.35,1.6 A 3.15,3.15 0 0 0 30.65,0 Z"
             id="path2-0"
             style="fill:#808080" />
          <line
             class="cls-2"
             x1="30.65"
             y1="34.900002"
             x2="1.25"
             y2="51.799999"
             id="line2-2"
             style="fill:none;stroke:#808080;stroke-miterlimit:10" />
          <line
             class="cls-2"
             x1="30.65"
             y1="34.900002"
             x2="30.65"
             y2="1"
             id="line3-8"
             style="fill:none;stroke:#808080;stroke-miterlimit:10" />
          <line
             class="cls-2"
             x1="30.65"
             y1="34.900002"
             x2="59.950001"
             y2="51.799999"
             id="line4-6"
             style="fill:none;stroke:#808080;stroke-miterlimit:10" />
          <path
             class="cls-3"
             d="m 1.25,49.6 4.3,-7.4 a 0.69,0.69 0 0 1 1.3,0.4 l -0.5,5.7 A 0.67,0.67 0 0 0 6.75,49 L 12,51.4 a 0.73,0.73 0 0 1 -0.3,1.4 H 3.05 a 2.13,2.13 0 0 1 -1.8,-3.2 z"
             id="path4-0"
             style="fill:#ffffff" />
          <path
             class="cls-3"
             d="m 60,49.6 -4.3,-7.4 a 0.69,0.69 0 0 0 -1.3,0.4 l 0.5,5.7 A 0.67,0.67 0 0 1 54.5,49 l -5.2,2.4 a 0.73,0.73 0 0 0 0.3,1.4 h 8.6 A 2.13,2.13 0 0 0 60,49.6 Z"
             id="path5-2"
             style="fill:#ffffff" />
        </g>
      </g>
    </g>
    <g
       id="Layer_2-4"
       data-name="Layer 2"
       transform="matrix(0.13193456,0,0,0.13193456,117.44373,146.39295)">
      <g
         id="Layer_1-2-1"
         data-name="Layer 1">
        <g
           id="DieB1-1">
          <path
             d="m 3.15,53.4 a 2.65,2.65 0 0 1 -2.3,-1.3 2.62,2.62 0 0 1 0,-2.7 L 28.25,1.9 a 2.68,2.68 0 0 1 4.6,0 l 27.4,47.5 a 2.62,2.62 0 0 1 0,2.7 2.65,2.65 0 0 1 -2.25,1.3 z"
             id="path1-3" />
          <path
             class="cls-1"
             d="m 30.65,1 a 2.26,2.26 0 0 1 1.9,1.1 L 60,49.6 a 2.15,2.15 0 0 1 -1.9,3.2 H 3.15 A 2.15,2.15 0 0 1 1.25,49.6 L 28.65,2.1 a 2.43,2.43 0 0 1 2,-1.1 m 0,-1 A 3,3 0 0 0 28,1.6 L 0.45,49.1 a 3.07,3.07 0 0 0 0,3.2 3.15,3.15 0 0 0 2.7,1.6 h 54.9 a 3,3 0 0 0 2.7,-1.6 3.07,3.07 0 0 0 0,-3.2 L 33.35,1.6 A 3.15,3.15 0 0 0 30.65,0 Z"
             id="path2-8"
             style="fill:#808080" />
          <line
             class="cls-2"
             x1="30.65"
             y1="34.900002"
             x2="1.25"
             y2="51.799999"
             id="line2-7"
             style="fill:none;stroke:#808080;stroke-miterlimit:10" />
          <line
             class="cls-2"
             x1="30.65"
             y1="34.900002"
             x2="30.65"
             y2="1"
             id="line3-4"
             style="fill:none;stroke:#808080;stroke-miterlimit:10" />
          <line
             class="cls-2"
             x1="30.65"
             y1="34.900002"
             x2="59.950001"
             y2="51.799999"
             id="line4-2"
             style="fill:none;stroke:#808080;stroke-miterlimit:10" />
          <path
             class="cls-3"
             d="m 1.25,49.6 4.3,-7.4 a 0.69,0.69 0 0 1 1.3,0.4 l -0.5,5.7 A 0.67,0.67 0 0 0 6.75,49 L 12,51.4 a 0.73,0.73 0 0 1 -0.3,1.4 H 3.05 a 2.13,2.13 0 0 1 -1.8,-3.2 z"
             id="path4-7"
             style="fill:#ffffff" />
          <path
             class="cls-3"
             d="m 60,49.6 -4.3,-7.4 a 0.69,0.69 0 0 0 -1.3,0.4 l 0.5,5.7 A 0.67,0.67 0 0 1 54.5,49 l -5.2,2.4 a 0.73,0.73 0 0 0 0.3,1.4 h 8.6 A 2.13,2.13 0 0 0 60,49.6 Z"
             id="path5-7"
             style="fill:#ffffff" />
        </g>
      </g>
    </g>
    <g
       id="Layer_2-5"
       data-name="Layer 2"
       transform="matrix(0.13193456,0,0,0.13193456,119.03123,150.76218)">
      <g
         id="Layer_1-2-0"
         data-name="Layer 1">
        <g
           id="DieB1-9">
          <path
             d="m 3.15,53.4 a 2.65,2.65 0 0 1 -2.3,-1.3 2.62,2.62 0 0 1 0,-2.7 L 28.25,1.9 a 2.68,2.68 0 0 1 4.6,0 l 27.4,47.5 a 2.62,2.62 0 0 1 0,2.7 2.65,2.65 0 0 1 -2.25,1.3 z"
             id="path1-0" />
          <path
             class="cls-1"
             d="m 30.65,1 a 2.26,2.26 0 0 1 1.9,1.1 L 60,49.6 a 2.15,2.15 0 0 1 -1.9,3.2 H 3.15 A 2.15,2.15 0 0 1 1.25,49.6 L 28.65,2.1 a 2.43,2.43 0 0 1 2,-1.1 m 0,-1 A 3,3 0 0 0 28,1.6 L 0.45,49.1 a 3.07,3.07 0 0 0 0,3.2 3.15,3.15 0 0 0 2.7,1.6 h 54.9 a 3,3 0 0 0 2.7,-1.6 3.07,3.07 0 0 0 0,-3.2 L 33.35,1.6 A 3.15,3.15 0 0 0 30.65,0 Z"
             id="path2-06"
             style="fill:#808080" />
          <line
             class="cls-2"
             x1="30.65"
             y1="34.900002"
             x2="1.25"
             y2="51.799999"
             id="line2-1"
             style="fill:none;stroke:#808080;stroke-miterlimit:10" />
          <line
             class="cls-2"
             x1="30.65"
             y1="34.900002"
             x2="30.65"
             y2="1"
             id="line3-3"
             style="fill:none;stroke:#808080;stroke-miterlimit:10" />
          <line
             class="cls-2"
             x1="30.65"
             y1="34.900002"
             x2="59.950001"
             y2="51.799999"
             id="line4-8"
             style="fill:none;stroke:#808080;stroke-miterlimit:10" />
          <path
             class="cls-3"
             d="m 1.25,49.6 4.3,-7.4 a 0.69,0.69 0 0 1 1.3,0.4 l -0.5,5.7 A 0.67,0.67 0 0 0 6.75,49 L 12,51.4 a 0.73,0.73 0 0 1 -0.3,1.4 H 3.05 a 2.13,2.13 0 0 1 -1.8,-3.2 z"
             id="path4-9"
             style="fill:#ffffff" />
          <path
             class="cls-3"
             d="m 60,49.6 -4.3,-7.4 a 0.69,0.69 0 0 0 -1.3,0.4 l 0.5,5.7 A 0.67,0.67 0 0 1 54.5,49 l -5.2,2.4 a 0.73,0.73 0 0 0 0.3,1.4 h 8.6 A 2.13,2.13 0 0 0 60,49.6 Z"
             id="path5-3"
             style="fill:#ffffff" />
        </g>
      </g>
    </g>
    <g
       id="Layer_1-2-3"
       data-name="Layer 1"
       transform="matrix(0.13193545,0,0,0.13193545,131.72005,137.65453)">
      <g
         id="DieW1">
        <path
           d="m 3.05,53.3 a 2.65,2.65 0 0 1 -2.3,-1.3 2.62,2.62 0 0 1 0,-2.7 L 28.15,1.8 a 2.68,2.68 0 0 1 4.6,0 l 27.4,47.5 a 2.62,2.62 0 0 1 0,2.7 2.65,2.65 0 0 1 -2.3,1.3 z"
           id="path1-59" />
        <path
           class="cls-1"
           d="m 30.55,1 a 2.26,2.26 0 0 1 1.9,1.1 l 27.4,47.5 A 2.15,2.15 0 0 1 58,52.8 H 3.05 A 2.15,2.15 0 0 1 1.15,49.6 L 28.55,2.1 a 2.21,2.21 0 0 1 2,-1.1 m 0,-1 a 3,3 0 0 0 -2.7,1.6 L 0.45,49.1 a 3.07,3.07 0 0 0 0,3.2 3.15,3.15 0 0 0 2.7,1.6 h 54.9 a 3,3 0 0 0 2.7,-1.6 3.07,3.07 0 0 0 0,-3.2 L 33.35,1.6 A 3.45,3.45 0 0 0 30.55,0 Z"
           id="path2-84"
           style="fill:#808080" />
        <line
           class="cls-2"
           x1="30.549999"
           y1="34.799999"
           x2="59.849998"
           y2="51.700001"
           id="line2-0"
           style="fill:none;stroke:#808080;stroke-miterlimit:10" />
        <line
           class="cls-2"
           x1="30.549999"
           y1="34.799999"
           x2="30.549999"
           y2="1"
           id="line3-7"
           style="fill:none;stroke:#808080;stroke-miterlimit:10" />
        <line
           class="cls-2"
           x1="30.549999"
           y1="34.799999"
           x2="1.15"
           y2="51.700001"
           id="line4-63"
           style="fill:none;stroke:#808080;stroke-miterlimit:10" />
        <path
           class="cls-3"
           d="m 29.85,26.9 -6.5,11.3 a 0.73,0.73 0 0 0 0.6,1.1 h 13.1 a 0.7,0.7 0 0 0 0.6,-1.1 l -6.5,-11.3 a 0.75,0.75 0 0 0 -1.3,0 z"
           id="path4-6"
           style="fill:#ffffff" />
        <path
           class="cls-3"
           d="m 59.85,49.6 -4.3,-7.4 a 0.69,0.69 0 0 0 -1.3,0.4 l 0.5,5.7 a 0.67,0.67 0 0 1 -0.4,0.7 l -5.2,2.4 a 0.73,0.73 0 0 0 0.3,1.4 h 8.6 a 2.17,2.17 0 0 0 1.8,-3.2 z"
           id="path5-1"
           style="fill:#ffffff" />
      </g>
    </g>
    <g
       id="Layer_1-2-3-0"
       data-name="Layer 1"
       transform="matrix(0.13193545,0,0,0.13193545,132.72276,142.02376)">
      <g
         id="DieW1-9">
        <path
           d="m 3.05,53.3 a 2.65,2.65 0 0 1 -2.3,-1.3 2.62,2.62 0 0 1 0,-2.7 L 28.15,1.8 a 2.68,2.68 0 0 1 4.6,0 l 27.4,47.5 a 2.62,2.62 0 0 1 0,2.7 2.65,2.65 0 0 1 -2.3,1.3 z"
           id="path1-59-7" />
        <path
           class="cls-1"
           d="m 30.55,1 a 2.26,2.26 0 0 1 1.9,1.1 l 27.4,47.5 A 2.15,2.15 0 0 1 58,52.8 H 3.05 A 2.15,2.15 0 0 1 1.15,49.6 L 28.55,2.1 a 2.21,2.21 0 0 1 2,-1.1 m 0,-1 a 3,3 0 0 0 -2.7,1.6 L 0.45,49.1 a 3.07,3.07 0 0 0 0,3.2 3.15,3.15 0 0 0 2.7,1.6 h 54.9 a 3,3 0 0 0 2.7,-1.6 3.07,3.07 0 0 0 0,-3.2 L 33.35,1.6 A 3.45,3.45 0 0 0 30.55,0 Z"
           id="path2-84-3"
           style="fill:#808080" />
        <line
           class="cls-2"
           x1="30.549999"
           y1="34.799999"
           x2="59.849998"
           y2="51.700001"
           id="line2-0-7"
           style="fill:none;stroke:#808080;stroke-miterlimit:10" />
        <line
           class="cls-2"
           x1="30.549999"
           y1="34.799999"
           x2="30.549999"
           y2="1"
           id="line3-7-2"
           style="fill:none;stroke:#808080;stroke-miterlimit:10" />
        <line
           class="cls-2"
           x1="30.549999"
           y1="34.799999"
           x2="1.15"
           y2="51.700001"
           id="line4-63-6"
           style="fill:none;stroke:#808080;stroke-miterlimit:10" />
        <path
           class="cls-3"
           d="m 29.85,26.9 -6.5,11.3 a 0.73,0.73 0 0 0 0.6,1.1 h 13.1 a 0.7,0.7 0 0 0 0.6,-1.1 l -6.5,-11.3 a 0.75,0.75 0 0 0 -1.3,0 z"
           id="path4-6-0"
           style="fill:#ffffff" />
        <path
           class="cls-3"
           d="m 59.85,49.6 -4.3,-7.4 a 0.69,0.69 0 0 0 -1.3,0.4 l 0.5,5.7 a 0.67,0.67 0 0 1 -0.4,0.7 l -5.2,2.4 a 0.73,0.73 0 0 0 0.3,1.4 h 8.6 a 2.17,2.17 0 0 0 1.8,-3.2 z"
           id="path5-1-1"
           style="fill:#ffffff" />
      </g>
    </g>
    <g
       id="Layer_1-2-3-5"
       data-name="Layer 1"
       transform="matrix(0.13193545,0,0,0.13193545,131.17912,146.393)">
      <g
         id="DieW1-4">
        <path
           d="m 3.05,53.3 a 2.65,2.65 0 0 1 -2.3,-1.3 2.62,2.62 0 0 1 0,-2.7 L 28.15,1.8 a 2.68,2.68 0 0 1 4.6,0 l 27.4,47.5 a 2.62,2.62 0 0 1 0,2.7 2.65,2.65 0 0 1 -2.3,1.3 z"
           id="path1-59-1" />
        <path
           class="cls-1"
           d="m 30.55,1 a 2.26,2.26 0 0 1 1.9,1.1 l 27.4,47.5 A 2.15,2.15 0 0 1 58,52.8 H 3.05 A 2.15,2.15 0 0 1 1.15,49.6 L 28.55,2.1 a 2.21,2.21 0 0 1 2,-1.1 m 0,-1 a 3,3 0 0 0 -2.7,1.6 L 0.45,49.1 a 3.07,3.07 0 0 0 0,3.2 3.15,3.15 0 0 0 2.7,1.6 h 54.9 a 3,3 0 0 0 2.7,-1.6 3.07,3.07 0 0 0 0,-3.2 L 33.35,1.6 A 3.45,3.45 0 0 0 30.55,0 Z"
           id="path2-84-2"
           style="fill:#808080" />
        <line
           class="cls-2"
           x1="30.549999"
           y1="34.799999"
           x2="59.849998"
           y2="51.700001"
           id="line2-0-0"
           style="fill:none;stroke:#808080;stroke-miterlimit:10" />
        <line
           class="cls-2"
           x1="30.549999"
           y1="34.799999"
           x2="30.549999"
           y2="1"
           id="line3-7-0"
           style="fill:none;stroke:#808080;stroke-miterlimit:10" />
        <line
           class="cls-2"
           x1="30.549999"
           y1="34.799999"
           x2="1.15"
           y2="51.700001"
           id="line4-63-1"
           style="fill:none;stroke:#808080;stroke-miterlimit:10" />
        <path
           class="cls-3"
           d="m 29.85,26.9 -6.5,11.3 a 0.73,0.73 0 0 0 0.6,1.1 h 13.1 a 0.7,0.7 0 0 0 0.6,-1.1 l -6.5,-11.3 a 0.75,0.75 0 0 0 -1.3,0 z"
           id="path4-6-4"
           style="fill:#ffffff" />
        <path
           class="cls-3"
           d="m 59.85,49.6 -4.3,-7.4 a 0.69,0.69 0 0 0 -1.3,0.4 l 0.5,5.7 a 0.67,0.67 0 0 1 -0.4,0.7 l -5.2,2.4 a 0.73,0.73 0 0 0 0.3,1.4 h 8.6 a 2.17,2.17 0 0 0 1.8,-3.2 z"
           id="path5-1-6"
           style="fill:#ffffff" />
      </g>
    </g>
    <g
       id="Layer_1-2-3-7"
       data-name="Layer 1"
       transform="matrix(0.13193545,0,0,0.13193545,133.6727,150.76223)">
      <g
         id="DieW1-7">
        <path
           d="m 3.05,53.3 a 2.65,2.65 0 0 1 -2.3,-1.3 2.62,2.62 0 0 1 0,-2.7 L 28.15,1.8 a 2.68,2.68 0 0 1 4.6,0 l 27.4,47.5 a 2.62,2.62 0 0 1 0,2.7 2.65,2.65 0 0 1 -2.3,1.3 z"
           id="path1-59-77" />
        <path
           class="cls-1"
           d="m 30.55,1 a 2.26,2.26 0 0 1 1.9,1.1 l 27.4,47.5 A 2.15,2.15 0 0 1 58,52.8 H 3.05 A 2.15,2.15 0 0 1 1.15,49.6 L 28.55,2.1 a 2.21,2.21 0 0 1 2,-1.1 m 0,-1 a 3,3 0 0 0 -2.7,1.6 L 0.45,49.1 a 3.07,3.07 0 0 0 0,3.2 3.15,3.15 0 0 0 2.7,1.6 h 54.9 a 3,3 0 0 0 2.7,-1.6 3.07,3.07 0 0 0 0,-3.2 L 33.35,1.6 A 3.45,3.45 0 0 0 30.55,0 Z"
           id="path2-84-33"
           style="fill:#808080" />
        <line
           class="cls-2"
           x1="30.549999"
           y1="34.799999"
           x2="59.849998"
           y2="51.700001"
           id="line2-0-5"
           style="fill:none;stroke:#808080;stroke-miterlimit:10" />
        <line
           class="cls-2"
           x1="30.549999"
           y1="34.799999"
           x2="30.549999"
           y2="1"
           id="line3-7-9"
           style="fill:none;stroke:#808080;stroke-miterlimit:10" />
        <line
           class="cls-2"
           x1="30.549999"
           y1="34.799999"
           x2="1.15"
           y2="51.700001"
           id="line4-63-9"
           style="fill:none;stroke:#808080;stroke-miterlimit:10" />
        <path
           class="cls-3"
           d="m 29.85,26.9 -6.5,11.3 a 0.73,0.73 0 0 0 0.6,1.1 h 13.1 a 0.7,0.7 0 0 0 0.6,-1.1 l -6.5,-11.3 a 0.75,0.75 0 0 0 -1.3,0 z"
           id="path4-6-8"
           style="fill:#ffffff" />
        <path
           class="cls-3"
           d="m 59.85,49.6 -4.3,-7.4 a 0.69,0.69 0 0 0 -1.3,0.4 l 0.5,5.7 a 0.67,0.67 0 0 1 -0.4,0.7 l -5.2,2.4 a 0.73,0.73 0 0 0 0.3,1.4 h 8.6 a 2.17,2.17 0 0 0 1.8,-3.2 z"
           id="path5-1-18"
           style="fill:#ffffff" />
      </g>
    </g>
    <path
       style="fill:#00ff00;stroke:#000000;stroke-width:0.264583px;stroke-linecap:butt;stroke-linejoin:miter;stroke-opacity:1"
       d="m 126.60312,147.50521 h 2.64583 v -2.64584 l 3.96875,3.96875 -3.96875,3.96876 v -2.64584 h -2.64583 z"
       id="path3"
       sodipodi:nodetypes="cccccccc" />
  </g>
</svg>
