<?xml version="1.0" encoding="utf-8"?>
<!-- Generator: Adobe Illustrator 23.0.3, SVG Export Plug-In . SVG Version: 6.00 Build 0)  -->
<svg version="1.1" id="Layer_1" xmlns="http://www.w3.org/2000/svg" xmlns:xlink="http://www.w3.org/1999/xlink" x="0px" y="0px"
	 viewBox="0 0 72 72" style="enable-background:new 0 0 72 72;" xml:space="preserve">
<style type="text/css">
	.st0{fill:#FFFFFF;}
	.st1{fill:#0000FF;}
	.st2{fill:none;stroke:#000000;stroke-miterlimit:10;}
</style>
<g>
	<rect class="st0" width="72" height="72"/>
	<g>
		<g>
			<polygon points="67.5,0 72,4.5 67.5,9 72,13.5 67.5,18 72,22.5 67.5,27 72,31.5 67.5,36 63,31.5 58.5,36 54,31.5 49.5,36 
				45,31.5 40.5,36 36,31.5 40.5,27 36,22.5 40.5,18 36,13.5 40.5,9 36,4.5 40.5,0 45,4.5 49.5,0 54,4.5 58.5,0 63,4.5 			"/>
			<polygon class="st0" points="41.9,27 37.4,22.5 41.9,18 37.4,13.5 41.9,9 37.4,4.5 40.5,1.4 45,5.9 49.5,1.4 54,5.9 58.5,1.4 
				63,5.9 67.5,1.4 70.6,4.5 66.1,9 70.6,13.5 66.1,18 70.6,22.5 66.1,27 70.6,31.5 67.5,34.6 63,30.1 58.5,34.6 54,30.1 49.5,34.6 
				45,30.1 40.5,34.6 37.4,31.5 			"/>
			<circle class="st1" cx="60.8" cy="11.3" r="3.4"/>
			<circle class="st1" cx="60.8" cy="24.8" r="3.4"/>
			<circle class="st1" cx="47.3" cy="11.3" r="3.4"/>
			<circle class="st1" cx="47.3" cy="24.8" r="3.4"/>
			<circle class="st1" cx="54" cy="18" r="3.4"/>
		</g>
		<g>
			<polygon points="67.5,36 72,40.5 67.5,45 72,49.5 67.5,54 72,58.5 67.5,63 72,67.5 67.5,72 63,67.5 58.5,72 54,67.5 49.5,72 
				45,67.5 40.5,72 36,67.5 40.5,63 36,58.5 40.5,54 36,49.5 40.5,45 36,40.5 40.5,36 45,40.5 49.5,36 54,40.5 58.5,36 63,40.5 			
				"/>
			<polygon class="st0" points="41.9,63 37.4,58.5 41.9,54 37.4,49.5 41.9,45 37.4,40.5 40.5,37.4 45,41.9 49.5,37.4 54,41.9 
				58.5,37.4 63,41.9 67.5,37.4 70.6,40.5 66.1,45 70.6,49.5 66.1,54 70.6,58.5 66.1,63 70.6,67.5 67.5,70.6 63,66.1 58.5,70.6 
				54,66.1 49.5,70.6 45,66.1 40.5,70.6 37.4,67.5 			"/>
			<circle class="st1" cx="60.8" cy="47.3" r="3.4"/>
			<circle class="st1" cx="60.8" cy="60.8" r="3.4"/>
			<circle class="st1" cx="47.3" cy="47.3" r="3.4"/>
			<circle class="st1" cx="47.3" cy="60.8" r="3.4"/>
			<circle class="st1" cx="54" cy="54" r="3.4"/>
		</g>
		<g>
			<polygon points="31.5,0 36,4.5 31.5,9 36,13.5 31.5,18 36,22.5 31.5,27 36,31.5 31.5,36 27,31.5 22.5,36 18,31.5 13.5,36 9,31.5 
				4.5,36 0,31.5 4.5,27 0,22.5 4.5,18 0,13.5 4.5,9 0,4.5 4.5,0 9,4.5 13.5,0 18,4.5 22.5,0 27,4.5 			"/>
			<polygon class="st0" points="5.9,27 1.4,22.5 5.9,18 1.4,13.5 5.9,9 1.4,4.5 4.5,1.4 9,5.9 13.5,1.4 18,5.9 22.5,1.4 27,5.9 
				31.5,1.4 34.6,4.5 30.1,9 34.6,13.5 30.1,18 34.6,22.5 30.1,27 34.6,31.5 31.5,34.6 27,30.1 22.5,34.6 18,30.1 13.5,34.6 9,30.1 
				4.5,34.6 1.4,31.5 			"/>
			<circle class="st1" cx="24.8" cy="11.3" r="3.4"/>
			<circle class="st1" cx="24.8" cy="24.8" r="3.4"/>
			<ellipse transform="matrix(0.4641 -0.8858 0.8858 0.4641 -3.9438 16.0727)" class="st1" cx="11.3" cy="11.3" rx="3.4" ry="3.4"/>
			
				<ellipse transform="matrix(0.4641 -0.8858 0.8858 0.4641 -15.9021 23.3079)" class="st1" cx="11.3" cy="24.8" rx="3.4" ry="3.4"/>
			<circle class="st1" cx="18" cy="18" r="3.4"/>
		</g>
		<g>
			<polygon points="31.5,36 36,40.5 31.5,45 36,49.5 31.5,54 36,58.5 31.5,63 36,67.5 31.5,72 27,67.5 22.5,72 18,67.5 13.5,72 
				9,67.5 4.5,72 0,67.5 4.5,63 0,58.5 4.5,54 0,49.5 4.5,45 0,40.5 4.5,36 9,40.5 13.5,36 18,40.5 22.5,36 27,40.5 			"/>
			<polygon class="st0" points="5.9,63 1.4,58.5 5.9,54 1.4,49.5 5.9,45 1.4,40.5 4.5,37.4 9,41.9 13.5,37.4 18,41.9 22.5,37.4 
				27,41.9 31.5,37.4 34.6,40.5 30.1,45 34.6,49.5 30.1,54 34.6,58.5 30.1,63 34.6,67.5 31.5,70.6 27,66.1 22.5,70.6 18,66.1 
				13.5,70.6 9,66.1 4.5,70.6 1.4,67.5 			"/>
			<circle class="st1" cx="24.8" cy="47.3" r="3.4"/>
			<circle class="st1" cx="24.8" cy="60.8" r="3.4"/>
			<ellipse class="st1" cx="11.3" cy="47.3" rx="3.4" ry="3.4"/>
			<ellipse class="st1" cx="11.3" cy="60.8" rx="3.4" ry="3.4"/>
			<circle class="st1" cx="18" cy="54" r="3.4"/>
		</g>
		<line class="st2" x1="72" y1="36" x2="0" y2="36"/>
		<line class="st2" x1="36" y1="72" x2="36" y2="0"/>
	</g>
</g>
</svg>
