<?xml version="1.0" encoding="utf-8"?>
<!-- Generator: Adobe Illustrator 23.0.3, SVG Export Plug-In . SVG Version: 6.00 Build 0)  -->
<svg version="1.1" id="Layer_1" xmlns="http://www.w3.org/2000/svg" xmlns:xlink="http://www.w3.org/1999/xlink" x="0px" y="0px"
	 viewBox="0 0 72 72" style="enable-background:new 0 0 72 72;" xml:space="preserve">
<style type="text/css">
	.st0{fill:#FFFFFF;}
	.st1{fill:#FF0000;}
	.st2{fill:#0000FF;}
</style>
<g>
	<rect y="0.1" class="st0" width="72" height="71.8"/>
	<g>
		<path d="M1.5,46.8C3.1,42.4,6,38.6,9.9,36C6,33.4,3.1,29.7,1.5,25.2L0,21.1l4-1.9c4.2-2,9-2.6,13.5-1.7c-0.3-1.4-0.4-2.8-0.4-4.3
			c0-3.2,0.7-6.4,2.1-9.3l1.9-4l4.1,1.5C29.6,3.1,33.4,6,36,9.9c2.6-3.9,6.3-6.8,10.8-8.4L50.9,0l1.9,4c1.4,2.9,2.1,6.1,2.1,9.3
			c0,1.4-0.1,2.9-0.4,4.3c4.6-0.9,9.3-0.3,13.5,1.7l4,1.9l-1.5,4.1c-1.6,4.4-4.5,8.2-8.4,10.8c3.9,2.6,6.8,6.3,8.4,10.8l1.5,4.1
			l-4,1.9c-4.2,2-9,2.6-13.5,1.7c0.3,1.4,0.4,2.8,0.4,4.3c0,3.2-0.7,6.4-2.1,9.3l-1.9,4l-4.1-1.5c-4.4-1.6-8.2-4.5-10.8-8.4
			c-2.6,3.9-6.3,6.8-10.8,8.4L21.1,72l-1.9-4c-1.4-2.9-2.1-6.1-2.1-9.3c0-1.4,0.1-2.9,0.4-4.3c-4.6,0.9-9.3,0.3-13.5-1.7l-4-1.9
			L1.5,46.8z"/>
		<path class="st0" d="M4.5,20.3c4.6-2.2,9.9-2.6,14.7-1.1c-0.6-1.9-0.9-3.9-0.9-5.9c0-3,0.7-6,2-8.8l1.4-3l3.1,1.1
			c4.8,1.7,8.8,5.2,11.2,9.6c2.4-4.5,6.3-7.9,11.2-9.6l3.1-1.1l1.4,3c1.3,2.7,2,5.8,2,8.8c0,2-0.3,4-0.9,5.9
			c4.8-1.5,10.1-1.1,14.7,1.1l3,1.4l-1.1,3.1c-1.7,4.8-5.2,8.8-9.6,11.2c4.5,2.4,7.9,6.3,9.6,11.2l1.1,3.1l-3,1.4
			c-4.6,2.2-9.9,2.6-14.7,1.1c0.6,1.9,0.9,3.9,0.9,6c0,3-0.7,6-2,8.8l-1.4,3l-3.1-1.1c-4.8-1.7-8.8-5.2-11.2-9.6
			c-2.4,4.5-6.3,7.9-11.2,9.6l-3.1,1.1l-1.4-3c-1.3-2.7-2-5.8-2-8.8c0-2,0.3-4,0.9-6c-4.8,1.5-10.1,1.1-14.7-1.1l-3-1.4l1.1-3.1
			c1.7-4.8,5.2-8.8,9.6-11.2c-4.5-2.4-7.9-6.3-9.6-11.2l-1.1-3.1L4.5,20.3z"/>
		<path d="M3.8,47.6c1.8-5.1,5.7-9.2,10.6-11.2c0.3-0.1,0.6-0.2,0.9-0.3c-0.3-0.1-0.6-0.2-0.9-0.3c-5-2.1-8.8-6.1-10.6-11.2
			l-0.7-2.1l2-0.9c4.9-2.3,10.5-2.5,15.4-0.4c0.3,0.1,0.6,0.3,0.9,0.4c-0.1-0.3-0.3-0.6-0.4-0.9c-1-2.3-1.4-4.7-1.4-7.2
			c0-2.8,0.6-5.7,1.9-8.2l0.9-2l2.1,0.7c5.1,1.8,9.2,5.7,11.2,10.6c0.1,0.3,0.2,0.6,0.3,0.9c0.1-0.3,0.2-0.6,0.3-0.9
			c2.1-5,6.1-8.8,11.2-10.6l2.1-0.7l0.9,2c1.2,2.6,1.9,5.4,1.9,8.2c0,2.5-0.5,4.9-1.4,7.2c-0.1,0.3-0.3,0.6-0.4,0.9
			c0.3-0.1,0.6-0.3,0.9-0.4c5-2.1,10.6-1.9,15.4,0.4l2,0.9l-0.7,2.1c-1.8,5.1-5.7,9.2-10.6,11.2c-0.3,0.1-0.6,0.2-0.9,0.3
			c0.3,0.1,0.6,0.2,0.9,0.3c5,2.1,8.8,6.1,10.6,11.2l0.7,2.1l-2,0.9C62,52.9,56.4,53.1,51.5,51c-0.3-0.1-0.6-0.3-0.9-0.4
			c0.1,0.3,0.3,0.6,0.4,0.9c1,2.3,1.4,4.7,1.4,7.2c0,2.8-0.6,5.7-1.9,8.2l-0.9,2l-2.1-0.7c-5.1-1.8-9.2-5.7-11.2-10.6
			c-0.1-0.3-0.2-0.6-0.3-0.9c-0.1,0.3-0.2,0.6-0.3,0.9c-2.1,5-6.1,8.8-11.2,10.6l-2.1,0.7l-0.9-2c-1.2-2.6-1.9-5.4-1.9-8.2
			c0-2.5,0.5-4.9,1.4-7.2c0.1-0.3,0.3-0.6,0.4-0.9c-0.3,0.1-0.6,0.3-0.9,0.4c-5,2.1-10.6,1.9-15.4-0.4l-2-0.9L3.8,47.6z"/>
		<path class="st0" d="M34.5,57c0.9-2.2,1.3-4.4,1.3-6.7c0-1.8-0.3-3.6-0.9-5.4c0.3,0,0.7,0.1,1,0.1s0.7,0,1-0.1
			c-0.6,1.7-0.9,3.6-0.9,5.4l0,0c0,2.3,0.5,4.6,1.3,6.7c1.9,4.6,5.8,8.3,10.5,9.9l1,0.4l0.5-1c1.2-2.4,1.8-5.1,1.8-7.7
			c0-2.3-0.5-4.6-1.3-6.7c-1.6-3.9-4.5-7-8.2-8.9c0.5-0.4,1-0.9,1.4-1.4c1.9,3.7,5.1,6.6,8.9,8.2c4.6,1.9,9.9,1.8,14.5-0.4l1-0.5
			L67,48c-1.7-4.8-5.3-8.6-9.9-10.5c-3.9-1.6-8.2-1.7-12.1-0.5c0-0.3,0.1-0.7,0.1-1s0-0.7-0.1-1c4,1.2,8.3,1.1,12.1-0.5
			c4.6-1.9,8.3-5.8,9.9-10.5l0.4-1l-1-0.5c-4.6-2.2-9.8-2.3-14.5-0.4c-3.9,1.6-7,4.5-8.9,8.2c-0.4-0.5-0.9-1-1.4-1.4
			c3.7-1.9,6.6-5.1,8.2-8.9c0.9-2.2,1.3-4.4,1.3-6.7c0-2.6-0.6-5.3-1.8-7.7l-0.5-1l-1,0.4C43,6.8,39.2,10.4,37.3,15
			c-0.9,2.2-1.3,4.4-1.3,6.7l0,0c0,1.8,0.3,3.6,0.9,5.4c-0.3,0-0.7-0.1-1-0.1s-0.7,0-1,0.1c0.5-1.7,0.9-3.6,0.9-5.4
			c0-2.3-0.5-4.6-1.3-6.7c-1.9-4.6-5.8-8.3-10.5-9.9l-1-0.4l-0.5,1c-1.2,2.4-1.8,5.1-1.8,7.7l0,0c0,2.3,0.5,4.6,1.3,6.7
			c1.6,3.9,4.5,7,8.2,8.9c-0.5,0.4-1,0.9-1.4,1.4c-1.9-3.7-5.1-6.6-8.9-8.2c-4.6-1.9-9.9-1.8-14.5,0.4l-1,0.5l0.4,1
			c1.7,4.8,5.3,8.6,9.9,10.5c3.9,1.6,8.2,1.7,12.1,0.5c0,0.3-0.1,0.7-0.1,1s0,0.7,0.1,1c-4-1.2-8.2-1.1-12.1,0.5
			c-4.6,1.9-8.3,5.8-9.9,10.5l-0.4,1l1,0.5c4.6,2.2,9.8,2.3,14.5,0.4c3.9-1.6,7-4.5,8.9-8.2c0.4,0.5,0.9,1,1.4,1.4
			C26.5,45,23.6,48.2,22,52c-0.9,2.2-1.3,4.4-1.3,6.7c0,2.6,0.6,5.3,1.8,7.7l0.5,1l1-0.4C28.8,65.3,32.6,61.7,34.5,57z"/>
		<ellipse class="st1" cx="36" cy="36" rx="7.9" ry="7.9"/>
		<path class="st2" d="M48.8,52.5c-1.9-4.5-5.5-7.7-9.8-9.2c-2,4.1-2.3,8.9-0.4,13.5c1.9,4.5,5.5,7.7,9.8,9.2
			C50.4,61.7,50.6,56.9,48.8,52.5z"/>
		<path class="st2" d="M33.4,15.4c-1.9-4.5-5.5-7.7-9.8-9.2c-2,4.1-2.3,8.9-0.4,13.5c1.9,4.5,5.5,7.7,9.8,9.2
			C35,24.7,35.3,19.8,33.4,15.4z"/>
		<path class="st1" d="M56.7,38.6c-4.5-1.9-9.4-1.6-13.5,0.4c1.5,4.3,4.7,7.9,9.2,9.8c4.5,1.9,9.4,1.6,13.5-0.4
			C64.4,44.1,61.2,40.5,56.7,38.6z"/>
		<path class="st1" d="M19.5,23.2C15,21.3,10.1,21.6,6,23.6c1.5,4.3,4.7,7.9,9.2,9.8c4.5,1.9,9.4,1.6,13.5-0.4
			C27.3,28.7,24,25.1,19.5,23.2z"/>
		<path class="st2" d="M52.5,23.2c-4.5,1.9-7.7,5.5-9.2,9.8c4.1,2,8.9,2.3,13.5,0.4c4.5-1.9,7.7-5.5,9.2-9.8
			C61.8,21.6,57,21.4,52.5,23.2z"/>
		<path class="st2" d="M15.3,38.6c-4.5,1.9-7.7,5.5-9.2,9.8c4.1,2,8.9,2.3,13.5,0.4c4.5-1.9,7.7-5.5,9.2-9.8
			C24.7,37,19.8,36.7,15.3,38.6z"/>
		<path class="st1" d="M38.6,15.4c-1.9,4.5-1.6,9.4,0.4,13.5c4.3-1.5,7.9-4.7,9.8-9.2c1.9-4.5,1.6-9.4-0.4-13.5
			C44.1,7.7,40.5,10.9,38.6,15.4z"/>
		<path class="st1" d="M23.2,52.5c-1.9,4.5-1.6,9.4,0.4,13.5c4.3-1.5,7.9-4.7,9.8-9.2S35,47.4,33,43.3C28.7,44.7,25.1,48,23.2,52.5z
			"/>
	</g>
</g>
</svg>
